<mxfile host="app.diagrams.net" modified="2022-09-30T09:32:16.759Z" agent="5.0 (Macintosh; Intel Mac OS X 10_15_7) AppleWebKit/605.1.15 (KHTML, like Gecko) Version/16.0 Safari/605.1.15" etag="i9pYBjNn1acLkpvCKYWz" version="20.3.7" type="github" pages="4">
  <diagram id="_jEmHj2mFV9FXTg2HRN9" name="Global Schemas">
    <mxGraphModel dx="901" dy="592" grid="1" gridSize="10" guides="1" tooltips="1" connect="1" arrows="1" fold="1" page="1" pageScale="1" pageWidth="827" pageHeight="1169" math="0" shadow="0">
      <root>
        <mxCell id="0" />
        <mxCell id="1" parent="0" />
        <mxCell id="MKDejTEfUFbS2tOspgIM-142" style="edgeStyle=orthogonalEdgeStyle;rounded=0;orthogonalLoop=1;jettySize=auto;html=1;entryX=0;entryY=0.5;entryDx=0;entryDy=0;fontSize=15;endArrow=none;endFill=0;" parent="1" edge="1">
          <mxGeometry relative="1" as="geometry">
            <mxPoint x="160" y="119.99999999999997" as="sourcePoint" />
            <mxPoint x="264.00000000000006" y="124.99999999999997" as="targetPoint" />
            <Array as="points">
              <mxPoint x="264" y="120" />
            </Array>
          </mxGeometry>
        </mxCell>
        <mxCell id="MKDejTEfUFbS2tOspgIM-158" style="edgeStyle=orthogonalEdgeStyle;rounded=0;orthogonalLoop=1;jettySize=auto;html=1;fontSize=15;endArrow=none;endFill=0;entryX=0;entryY=0.5;entryDx=0;entryDy=0;" parent="1" target="MKDejTEfUFbS2tOspgIM-154" edge="1">
          <mxGeometry relative="1" as="geometry">
            <mxPoint x="210" y="360" as="targetPoint" />
            <mxPoint x="160" y="90" as="sourcePoint" />
            <Array as="points">
              <mxPoint x="120" y="90" />
              <mxPoint x="120" y="40" />
              <mxPoint x="1460" y="40" />
            </Array>
          </mxGeometry>
        </mxCell>
        <mxCell id="MKDejTEfUFbS2tOspgIM-213" style="edgeStyle=orthogonalEdgeStyle;rounded=0;orthogonalLoop=1;jettySize=auto;html=1;exitX=0.855;exitY=0;exitDx=0;exitDy=4.35;exitPerimeter=0;entryX=0.901;entryY=0.016;entryDx=0;entryDy=0;entryPerimeter=0;fontSize=7;endArrow=none;endFill=0;" parent="1" source="MKDejTEfUFbS2tOspgIM-1" target="33VA1eLPJi6Qy8k9FSGy-30" edge="1">
          <mxGeometry relative="1" as="geometry" />
        </mxCell>
        <mxCell id="MKDejTEfUFbS2tOspgIM-1" value="Batterie&lt;br&gt;7,2V&lt;br&gt;1.3Ah" style="shape=cylinder3;whiteSpace=wrap;html=1;boundedLbl=1;backgroundOutline=1;size=15;fillColor=#b1ddf0;strokeColor=#10739e;" parent="1" vertex="1">
          <mxGeometry x="70" y="50" width="90" height="130" as="geometry" />
        </mxCell>
        <mxCell id="KcxZBeON1zcsIMJRfk1I-1" style="edgeStyle=orthogonalEdgeStyle;rounded=0;orthogonalLoop=1;jettySize=auto;html=1;exitX=0.75;exitY=0;exitDx=0;exitDy=0;entryX=0;entryY=0.25;entryDx=0;entryDy=0;endArrow=none;endFill=0;" parent="1" source="MKDejTEfUFbS2tOspgIM-2" target="MKDejTEfUFbS2tOspgIM-154" edge="1">
          <mxGeometry relative="1" as="geometry" />
        </mxCell>
        <mxCell id="MKDejTEfUFbS2tOspgIM-2" value="STM32G070RBT6" style="whiteSpace=wrap;html=1;aspect=fixed;fillColor=#fad9d5;strokeColor=#ae4132;" parent="1" vertex="1">
          <mxGeometry x="664" y="260" width="200" height="200" as="geometry" />
        </mxCell>
        <mxCell id="MKDejTEfUFbS2tOspgIM-3" value="Quartz&lt;br&gt;16MHz" style="ellipse;whiteSpace=wrap;html=1;aspect=fixed;fillColor=#f8cecc;strokeColor=#b85450;" parent="1" vertex="1">
          <mxGeometry x="930" y="190" width="80" height="80" as="geometry" />
        </mxCell>
        <mxCell id="MKDejTEfUFbS2tOspgIM-4" value="" style="endArrow=none;html=1;rounded=0;exitX=1;exitY=0.25;exitDx=0;exitDy=0;entryX=0.5;entryY=1;entryDx=0;entryDy=0;" parent="1" source="MKDejTEfUFbS2tOspgIM-2" target="MKDejTEfUFbS2tOspgIM-3" edge="1">
          <mxGeometry width="50" height="50" relative="1" as="geometry">
            <mxPoint x="870" y="340" as="sourcePoint" />
            <mxPoint x="970" y="290" as="targetPoint" />
            <Array as="points">
              <mxPoint x="970" y="310" />
            </Array>
          </mxGeometry>
        </mxCell>
        <mxCell id="MKDejTEfUFbS2tOspgIM-5" value="" style="endArrow=none;html=1;rounded=0;entryX=0;entryY=1;entryDx=0;entryDy=0;exitX=1;exitY=0.151;exitDx=0;exitDy=0;exitPerimeter=0;" parent="1" source="MKDejTEfUFbS2tOspgIM-2" target="MKDejTEfUFbS2tOspgIM-3" edge="1">
          <mxGeometry width="50" height="50" relative="1" as="geometry">
            <mxPoint x="870" y="280" as="sourcePoint" />
            <mxPoint x="930" y="218.89999999999998" as="targetPoint" />
            <Array as="points">
              <mxPoint x="942" y="290" />
            </Array>
          </mxGeometry>
        </mxCell>
        <mxCell id="MKDejTEfUFbS2tOspgIM-6" value="OSC_OUT" style="text;html=1;strokeColor=none;fillColor=none;align=center;verticalAlign=middle;whiteSpace=wrap;rounded=0;fontSize=7;" parent="1" vertex="1">
          <mxGeometry x="810" y="300" width="60" height="20" as="geometry" />
        </mxCell>
        <mxCell id="MKDejTEfUFbS2tOspgIM-7" value="OSC_IN" style="text;html=1;strokeColor=none;fillColor=none;align=center;verticalAlign=middle;whiteSpace=wrap;rounded=0;fontSize=7;" parent="1" vertex="1">
          <mxGeometry x="810" y="280" width="60" height="20" as="geometry" />
        </mxCell>
        <mxCell id="MKDejTEfUFbS2tOspgIM-8" value="" style="endArrow=none;html=1;rounded=0;" parent="1" edge="1">
          <mxGeometry width="50" height="50" relative="1" as="geometry">
            <mxPoint x="970" y="280" as="sourcePoint" />
            <mxPoint x="1020" y="300" as="targetPoint" />
            <Array as="points">
              <mxPoint x="1020" y="280" />
            </Array>
          </mxGeometry>
        </mxCell>
        <mxCell id="MKDejTEfUFbS2tOspgIM-9" value="C" style="whiteSpace=wrap;html=1;aspect=fixed;fillColor=#ffe6cc;strokeColor=#d79b00;" parent="1" vertex="1">
          <mxGeometry x="1010" y="300" width="20" height="20" as="geometry" />
        </mxCell>
        <mxCell id="MKDejTEfUFbS2tOspgIM-11" value="C" style="whiteSpace=wrap;html=1;aspect=fixed;fillColor=#ffe6cc;strokeColor=#d79b00;" parent="1" vertex="1">
          <mxGeometry x="890" y="230" width="20" height="20" as="geometry" />
        </mxCell>
        <mxCell id="MKDejTEfUFbS2tOspgIM-12" value="" style="endArrow=none;html=1;rounded=0;entryX=0.5;entryY=1;entryDx=0;entryDy=0;" parent="1" target="MKDejTEfUFbS2tOspgIM-11" edge="1">
          <mxGeometry width="50" height="50" relative="1" as="geometry">
            <mxPoint x="940" y="270" as="sourcePoint" />
            <mxPoint x="990" y="290" as="targetPoint" />
            <Array as="points">
              <mxPoint x="900" y="270" />
            </Array>
          </mxGeometry>
        </mxCell>
        <mxCell id="MKDejTEfUFbS2tOspgIM-15" value="" style="group" parent="1" vertex="1" connectable="0">
          <mxGeometry x="1015" y="320" width="10" height="15" as="geometry" />
        </mxCell>
        <mxCell id="MKDejTEfUFbS2tOspgIM-13" value="" style="strokeWidth=1;html=1;shape=mxgraph.flowchart.annotation_2;align=left;labelPosition=right;pointerEvents=1;rotation=90;" parent="MKDejTEfUFbS2tOspgIM-15" vertex="1">
          <mxGeometry x="-2.5" y="2.5" width="15" height="10" as="geometry" />
        </mxCell>
        <mxCell id="MKDejTEfUFbS2tOspgIM-14" value="" style="endArrow=none;html=1;rounded=0;" parent="MKDejTEfUFbS2tOspgIM-15" edge="1">
          <mxGeometry width="50" height="50" relative="1" as="geometry">
            <mxPoint x="4.919999999999959" y="12.5" as="sourcePoint" />
            <mxPoint x="4.919999999999959" y="2.5" as="targetPoint" />
            <Array as="points">
              <mxPoint x="4.919999999999959" y="2.5" />
            </Array>
          </mxGeometry>
        </mxCell>
        <mxCell id="MKDejTEfUFbS2tOspgIM-16" value="" style="group;rotation=-180;" parent="1" vertex="1" connectable="0">
          <mxGeometry x="895" y="215" width="10" height="15" as="geometry" />
        </mxCell>
        <mxCell id="MKDejTEfUFbS2tOspgIM-17" value="" style="strokeWidth=1;html=1;shape=mxgraph.flowchart.annotation_2;align=left;labelPosition=right;pointerEvents=1;rotation=-90;" parent="MKDejTEfUFbS2tOspgIM-16" vertex="1">
          <mxGeometry x="-2" y="3" width="15" height="10" as="geometry" />
        </mxCell>
        <mxCell id="MKDejTEfUFbS2tOspgIM-18" value="" style="endArrow=none;html=1;rounded=0;" parent="MKDejTEfUFbS2tOspgIM-16" edge="1">
          <mxGeometry width="50" height="50" relative="1" as="geometry">
            <mxPoint x="5" y="3" as="sourcePoint" />
            <mxPoint x="5" y="12" as="targetPoint" />
            <Array as="points">
              <mxPoint x="5" y="12" />
            </Array>
          </mxGeometry>
        </mxCell>
        <mxCell id="MKDejTEfUFbS2tOspgIM-96" style="edgeStyle=orthogonalEdgeStyle;rounded=0;orthogonalLoop=1;jettySize=auto;html=1;exitX=0.75;exitY=1;exitDx=0;exitDy=0;fontSize=7;endArrow=none;endFill=0;entryX=0.398;entryY=0.997;entryDx=0;entryDy=0;entryPerimeter=0;" parent="1" source="MKDejTEfUFbS2tOspgIM-20" target="MKDejTEfUFbS2tOspgIM-2" edge="1">
          <mxGeometry relative="1" as="geometry">
            <mxPoint x="420" y="546.5217391304348" as="targetPoint" />
            <Array as="points">
              <mxPoint x="175" y="840" />
              <mxPoint x="700" y="840" />
              <mxPoint x="700" y="459" />
            </Array>
          </mxGeometry>
        </mxCell>
        <mxCell id="MKDejTEfUFbS2tOspgIM-97" style="edgeStyle=orthogonalEdgeStyle;rounded=0;orthogonalLoop=1;jettySize=auto;html=1;exitX=0.25;exitY=1;exitDx=0;exitDy=0;entryX=0.5;entryY=1;entryDx=0;entryDy=0;fontSize=7;endArrow=none;endFill=0;" parent="1" source="MKDejTEfUFbS2tOspgIM-20" target="MKDejTEfUFbS2tOspgIM-2" edge="1">
          <mxGeometry relative="1" as="geometry">
            <Array as="points">
              <mxPoint x="125" y="860" />
              <mxPoint x="720" y="860" />
              <mxPoint x="720" y="460" />
            </Array>
          </mxGeometry>
        </mxCell>
        <mxCell id="MKDejTEfUFbS2tOspgIM-20" value="Driver Moteur 1" style="whiteSpace=wrap;html=1;aspect=fixed;strokeWidth=1;fillColor=#e1d5e7;strokeColor=#9673a6;" parent="1" vertex="1">
          <mxGeometry x="100" y="640" width="100" height="100" as="geometry" />
        </mxCell>
        <mxCell id="MKDejTEfUFbS2tOspgIM-99" style="edgeStyle=orthogonalEdgeStyle;rounded=0;orthogonalLoop=1;jettySize=auto;html=1;fontSize=7;endArrow=none;endFill=0;" parent="1" source="43Q_XorwH1pVwPc8YvhM-2" target="MKDejTEfUFbS2tOspgIM-2" edge="1">
          <mxGeometry relative="1" as="geometry">
            <Array as="points">
              <mxPoint x="1310" y="350" />
            </Array>
          </mxGeometry>
        </mxCell>
        <mxCell id="33VA1eLPJi6Qy8k9FSGy-50" style="edgeStyle=orthogonalEdgeStyle;rounded=0;orthogonalLoop=1;jettySize=auto;html=1;exitX=0.75;exitY=0;exitDx=0;exitDy=0;entryX=0;entryY=0.25;entryDx=0;entryDy=0;fontSize=6;endArrow=none;endFill=0;" parent="1" source="43Q_XorwH1pVwPc8YvhM-2" target="MKDejTEfUFbS2tOspgIM-154" edge="1">
          <mxGeometry relative="1" as="geometry" />
        </mxCell>
        <UserObject label="Capteur bordure&lt;br&gt;2.7V" treeRoot="1" id="43Q_XorwH1pVwPc8YvhM-2">
          <mxCell style="whiteSpace=wrap;html=1;align=center;treeFolding=1;treeMoving=1;newEdgeStyle={&quot;edgeStyle&quot;:&quot;elbowEdgeStyle&quot;,&quot;startArrow&quot;:&quot;none&quot;,&quot;endArrow&quot;:&quot;none&quot;};fillColor=#f5f5f5;fontColor=#333333;strokeColor=#666666;" parent="1" vertex="1">
            <mxGeometry x="1250" y="460" width="120" height="60" as="geometry" />
          </mxCell>
        </UserObject>
        <mxCell id="MKDejTEfUFbS2tOspgIM-23" value="" style="group" parent="1" vertex="1" connectable="0">
          <mxGeometry x="225" y="740" width="10" height="15" as="geometry" />
        </mxCell>
        <mxCell id="MKDejTEfUFbS2tOspgIM-24" value="" style="strokeWidth=1;html=1;shape=mxgraph.flowchart.annotation_2;align=left;labelPosition=right;pointerEvents=1;rotation=90;" parent="MKDejTEfUFbS2tOspgIM-23" vertex="1">
          <mxGeometry x="-2.5" y="2.5" width="15" height="10" as="geometry" />
        </mxCell>
        <mxCell id="MKDejTEfUFbS2tOspgIM-25" value="" style="endArrow=none;html=1;rounded=0;" parent="MKDejTEfUFbS2tOspgIM-23" edge="1">
          <mxGeometry width="50" height="50" relative="1" as="geometry">
            <mxPoint x="4.919999999999959" y="12.5" as="sourcePoint" />
            <mxPoint x="4.919999999999959" y="2.5" as="targetPoint" />
            <Array as="points">
              <mxPoint x="4.919999999999959" y="2.5" />
            </Array>
          </mxGeometry>
        </mxCell>
        <mxCell id="33VA1eLPJi6Qy8k9FSGy-2" style="edgeStyle=orthogonalEdgeStyle;rounded=0;orthogonalLoop=1;jettySize=auto;html=1;exitX=0.75;exitY=0;exitDx=0;exitDy=0;entryX=1;entryY=0.75;entryDx=0;entryDy=0;endArrow=none;endFill=0;" parent="1" source="43Q_XorwH1pVwPc8YvhM-3" target="MKDejTEfUFbS2tOspgIM-2" edge="1">
          <mxGeometry relative="1" as="geometry">
            <mxPoint x="839.6923076923076" y="459.9999999999999" as="targetPoint" />
            <Array as="points">
              <mxPoint x="1190" y="750" />
              <mxPoint x="1190" y="370" />
              <mxPoint x="864" y="370" />
            </Array>
          </mxGeometry>
        </mxCell>
        <mxCell id="33VA1eLPJi6Qy8k9FSGy-4" style="edgeStyle=orthogonalEdgeStyle;rounded=0;orthogonalLoop=1;jettySize=auto;html=1;exitX=0.25;exitY=0;exitDx=0;exitDy=0;entryX=0.997;entryY=0.793;entryDx=0;entryDy=0;entryPerimeter=0;endArrow=none;endFill=0;" parent="1" source="43Q_XorwH1pVwPc8YvhM-3" target="MKDejTEfUFbS2tOspgIM-2" edge="1">
          <mxGeometry relative="1" as="geometry">
            <Array as="points">
              <mxPoint x="1110" y="410" />
              <mxPoint x="863" y="410" />
            </Array>
          </mxGeometry>
        </mxCell>
        <mxCell id="33VA1eLPJi6Qy8k9FSGy-49" style="edgeStyle=orthogonalEdgeStyle;rounded=0;orthogonalLoop=1;jettySize=auto;html=1;exitX=0.5;exitY=0;exitDx=0;exitDy=0;entryX=1;entryY=0.75;entryDx=0;entryDy=0;fontSize=6;endArrow=none;endFill=0;" parent="1" source="43Q_XorwH1pVwPc8YvhM-3" target="MKDejTEfUFbS2tOspgIM-154" edge="1">
          <mxGeometry relative="1" as="geometry">
            <Array as="points">
              <mxPoint x="1140" y="780" />
              <mxPoint x="1540" y="780" />
              <mxPoint x="1540" y="155" />
            </Array>
          </mxGeometry>
        </mxCell>
        <UserObject label="Capteur TOF&lt;br&gt;2.8V" treeRoot="1" id="43Q_XorwH1pVwPc8YvhM-3">
          <mxCell style="whiteSpace=wrap;html=1;align=center;treeFolding=1;treeMoving=1;newEdgeStyle={&quot;edgeStyle&quot;:&quot;elbowEdgeStyle&quot;,&quot;startArrow&quot;:&quot;none&quot;,&quot;endArrow&quot;:&quot;none&quot;};fillColor=#f5f5f5;fontColor=#333333;strokeColor=#666666;" parent="1" vertex="1">
            <mxGeometry x="1080" y="750" width="120" height="60" as="geometry" />
          </mxCell>
        </UserObject>
        <mxCell id="MKDejTEfUFbS2tOspgIM-27" value="" style="endArrow=none;html=1;rounded=0;entryX=0;entryY=0.5;entryDx=0;entryDy=0;entryPerimeter=0;" parent="1" target="MKDejTEfUFbS2tOspgIM-24" edge="1">
          <mxGeometry width="50" height="50" relative="1" as="geometry">
            <mxPoint x="200" y="730" as="sourcePoint" />
            <mxPoint x="220" y="730" as="targetPoint" />
            <Array as="points">
              <mxPoint x="215" y="730" />
              <mxPoint x="230" y="730" />
            </Array>
          </mxGeometry>
        </mxCell>
        <mxCell id="MKDejTEfUFbS2tOspgIM-29" value="&lt;font style=&quot;font-size: 7px;&quot;&gt;GND&lt;/font&gt;" style="text;html=1;align=center;verticalAlign=middle;resizable=0;points=[];autosize=1;strokeColor=none;fillColor=none;" parent="1" vertex="1">
          <mxGeometry x="191" y="719" width="40" height="30" as="geometry" />
        </mxCell>
        <mxCell id="MKDejTEfUFbS2tOspgIM-30" value="&lt;font style=&quot;font-size: 7px;&quot;&gt;VDD&lt;/font&gt;" style="text;html=1;align=center;verticalAlign=middle;resizable=0;points=[];autosize=1;strokeColor=none;fillColor=none;" parent="1" vertex="1">
          <mxGeometry x="60" y="630" width="40" height="30" as="geometry" />
        </mxCell>
        <mxCell id="MKDejTEfUFbS2tOspgIM-31" value="" style="endArrow=none;html=1;rounded=0;fontSize=7;exitX=-0.03;exitY=0.626;exitDx=0;exitDy=0;exitPerimeter=0;entryX=0.002;entryY=0.197;entryDx=0;entryDy=0;entryPerimeter=0;" parent="1" source="MKDejTEfUFbS2tOspgIM-1" target="MKDejTEfUFbS2tOspgIM-20" edge="1">
          <mxGeometry width="50" height="50" relative="1" as="geometry">
            <mxPoint x="50" y="410" as="sourcePoint" />
            <mxPoint x="100" y="657" as="targetPoint" />
            <Array as="points">
              <mxPoint x="30" y="131" />
              <mxPoint x="30" y="660" />
              <mxPoint x="60" y="660" />
            </Array>
          </mxGeometry>
        </mxCell>
        <mxCell id="MKDejTEfUFbS2tOspgIM-32" value="&lt;font style=&quot;font-size: 7px;&quot;&gt;VRef&lt;/font&gt;" style="text;html=1;align=center;verticalAlign=middle;resizable=0;points=[];autosize=1;strokeColor=none;fillColor=none;" parent="1" vertex="1">
          <mxGeometry x="200" y="630" width="40" height="30" as="geometry" />
        </mxCell>
        <mxCell id="MKDejTEfUFbS2tOspgIM-35" value="" style="endArrow=none;html=1;rounded=0;fontSize=7;entryX=-0.009;entryY=1.054;entryDx=0;entryDy=0;entryPerimeter=0;startArrow=none;" parent="1" target="MKDejTEfUFbS2tOspgIM-32" edge="1">
          <mxGeometry width="50" height="50" relative="1" as="geometry">
            <mxPoint x="150" y="600" as="sourcePoint" />
            <mxPoint x="100" y="610" as="targetPoint" />
            <Array as="points">
              <mxPoint x="240" y="600" />
              <mxPoint x="240" y="662" />
            </Array>
          </mxGeometry>
        </mxCell>
        <mxCell id="33VA1eLPJi6Qy8k9FSGy-8" style="edgeStyle=orthogonalEdgeStyle;rounded=0;orthogonalLoop=1;jettySize=auto;html=1;exitX=0.5;exitY=0;exitDx=0;exitDy=0;entryX=0.5;entryY=1;entryDx=0;entryDy=0;endArrow=none;endFill=0;" parent="1" source="AZ--ULnY_lqlN4T8WkKu-5" target="43Q_XorwH1pVwPc8YvhM-2" edge="1">
          <mxGeometry relative="1" as="geometry" />
        </mxCell>
        <mxCell id="AZ--ULnY_lqlN4T8WkKu-5" value="C" style="whiteSpace=wrap;html=1;aspect=fixed;fillColor=#ffe6cc;strokeColor=#d79b00;" parent="1" vertex="1">
          <mxGeometry x="1300" y="585" width="20" height="20" as="geometry" />
        </mxCell>
        <mxCell id="MKDejTEfUFbS2tOspgIM-44" style="edgeStyle=orthogonalEdgeStyle;rounded=0;orthogonalLoop=1;jettySize=auto;html=1;exitX=0.5;exitY=0;exitDx=0;exitDy=0;fontSize=7;endArrow=none;endFill=0;" parent="1" source="MKDejTEfUFbS2tOspgIM-36" edge="1">
          <mxGeometry relative="1" as="geometry">
            <mxPoint x="79.96491228070175" y="660" as="targetPoint" />
          </mxGeometry>
        </mxCell>
        <mxCell id="MKDejTEfUFbS2tOspgIM-45" style="edgeStyle=orthogonalEdgeStyle;rounded=0;orthogonalLoop=1;jettySize=auto;html=1;exitX=0.5;exitY=1;exitDx=0;exitDy=0;fontSize=7;endArrow=none;endFill=0;" parent="1" source="MKDejTEfUFbS2tOspgIM-36" edge="1">
          <mxGeometry relative="1" as="geometry">
            <mxPoint x="79.96491228070175" y="700" as="targetPoint" />
          </mxGeometry>
        </mxCell>
        <mxCell id="MKDejTEfUFbS2tOspgIM-36" value="C" style="whiteSpace=wrap;html=1;aspect=fixed;fillColor=#ffe6cc;strokeColor=#d79b00;" parent="1" vertex="1">
          <mxGeometry x="70" y="670" width="20" height="20" as="geometry" />
        </mxCell>
        <mxCell id="MKDejTEfUFbS2tOspgIM-39" value="" style="endArrow=none;html=1;rounded=0;fontSize=7;entryX=0;entryY=0.5;entryDx=0;entryDy=0;" parent="1" edge="1">
          <mxGeometry width="50" height="50" relative="1" as="geometry">
            <mxPoint x="50" y="660" as="sourcePoint" />
            <mxPoint x="160" y="600" as="targetPoint" />
            <Array as="points">
              <mxPoint x="50" y="600" />
            </Array>
          </mxGeometry>
        </mxCell>
        <mxCell id="MKDejTEfUFbS2tOspgIM-49" value="" style="group" parent="1" vertex="1" connectable="0">
          <mxGeometry x="75" y="700" width="10" height="15" as="geometry" />
        </mxCell>
        <mxCell id="MKDejTEfUFbS2tOspgIM-50" value="" style="strokeWidth=1;html=1;shape=mxgraph.flowchart.annotation_2;align=left;labelPosition=right;pointerEvents=1;rotation=90;" parent="MKDejTEfUFbS2tOspgIM-49" vertex="1">
          <mxGeometry x="-2.5" y="2.5" width="15" height="10" as="geometry" />
        </mxCell>
        <mxCell id="MKDejTEfUFbS2tOspgIM-51" value="" style="endArrow=none;html=1;rounded=0;" parent="MKDejTEfUFbS2tOspgIM-49" edge="1">
          <mxGeometry width="50" height="50" relative="1" as="geometry">
            <mxPoint x="4.919999999999959" y="12.5" as="sourcePoint" />
            <mxPoint x="4.919999999999959" y="2.5" as="targetPoint" />
            <Array as="points">
              <mxPoint x="4.919999999999959" y="2.5" />
            </Array>
          </mxGeometry>
        </mxCell>
        <mxCell id="MKDejTEfUFbS2tOspgIM-59" style="edgeStyle=orthogonalEdgeStyle;rounded=0;orthogonalLoop=1;jettySize=auto;html=1;entryX=1.009;entryY=0.552;entryDx=0;entryDy=0;entryPerimeter=0;fontSize=7;endArrow=none;endFill=0;" parent="1" source="MKDejTEfUFbS2tOspgIM-57" target="MKDejTEfUFbS2tOspgIM-20" edge="1">
          <mxGeometry relative="1" as="geometry" />
        </mxCell>
        <mxCell id="MKDejTEfUFbS2tOspgIM-186" style="edgeStyle=orthogonalEdgeStyle;rounded=0;orthogonalLoop=1;jettySize=auto;html=1;exitX=1;exitY=0.5;exitDx=0;exitDy=0;fontSize=7;endArrow=none;endFill=0;" parent="1" source="MKDejTEfUFbS2tOspgIM-57" edge="1">
          <mxGeometry relative="1" as="geometry">
            <mxPoint x="665" y="320" as="targetPoint" />
            <Array as="points">
              <mxPoint x="330" y="800" />
              <mxPoint x="570" y="800" />
              <mxPoint x="570" y="320" />
              <mxPoint x="665" y="320" />
            </Array>
          </mxGeometry>
        </mxCell>
        <mxCell id="MKDejTEfUFbS2tOspgIM-187" style="edgeStyle=orthogonalEdgeStyle;rounded=0;orthogonalLoop=1;jettySize=auto;html=1;exitX=1;exitY=1;exitDx=0;exitDy=0;entryX=0.009;entryY=0.369;entryDx=0;entryDy=0;fontSize=7;endArrow=none;endFill=0;entryPerimeter=0;" parent="1" source="MKDejTEfUFbS2tOspgIM-57" target="MKDejTEfUFbS2tOspgIM-2" edge="1">
          <mxGeometry relative="1" as="geometry">
            <Array as="points">
              <mxPoint x="322" y="810" />
              <mxPoint x="590" y="810" />
              <mxPoint x="590" y="330" />
              <mxPoint x="664" y="330" />
              <mxPoint x="664" y="334" />
            </Array>
          </mxGeometry>
        </mxCell>
        <mxCell id="MKDejTEfUFbS2tOspgIM-207" style="edgeStyle=orthogonalEdgeStyle;rounded=0;orthogonalLoop=1;jettySize=auto;html=1;exitX=1;exitY=0;exitDx=0;exitDy=0;entryX=0.995;entryY=0.337;entryDx=0;entryDy=0;entryPerimeter=0;fontSize=7;endArrow=none;endFill=0;" parent="1" source="MKDejTEfUFbS2tOspgIM-126" target="MKDejTEfUFbS2tOspgIM-20" edge="1">
          <mxGeometry relative="1" as="geometry">
            <Array as="points">
              <mxPoint x="280" y="777" />
              <mxPoint x="280" y="674" />
            </Array>
          </mxGeometry>
        </mxCell>
        <mxCell id="MKDejTEfUFbS2tOspgIM-57" value="Moteur MCC 1" style="ellipse;whiteSpace=wrap;html=1;aspect=fixed;strokeWidth=1;fontSize=7;fillColor=#d5e8d4;strokeColor=#82b366;" parent="1" vertex="1">
          <mxGeometry x="275" y="770" width="55" height="55" as="geometry" />
        </mxCell>
        <mxCell id="MKDejTEfUFbS2tOspgIM-61" value="&lt;span style=&quot;font-size: 7px;&quot;&gt;O1&lt;/span&gt;" style="text;html=1;align=center;verticalAlign=middle;resizable=0;points=[];autosize=1;strokeColor=none;fillColor=none;" parent="1" vertex="1">
          <mxGeometry x="196" y="685" width="30" height="30" as="geometry" />
        </mxCell>
        <mxCell id="MKDejTEfUFbS2tOspgIM-98" style="edgeStyle=orthogonalEdgeStyle;rounded=0;orthogonalLoop=1;jettySize=auto;html=1;exitX=0.75;exitY=1;exitDx=0;exitDy=0;entryX=0.678;entryY=0.997;entryDx=0;entryDy=0;entryPerimeter=0;fontSize=7;endArrow=none;endFill=0;" parent="1" source="MKDejTEfUFbS2tOspgIM-66" target="MKDejTEfUFbS2tOspgIM-2" edge="1">
          <mxGeometry relative="1" as="geometry">
            <Array as="points">
              <mxPoint x="175" y="1130" />
              <mxPoint x="740" y="1130" />
              <mxPoint x="740" y="459" />
            </Array>
          </mxGeometry>
        </mxCell>
        <mxCell id="MKDejTEfUFbS2tOspgIM-100" style="edgeStyle=orthogonalEdgeStyle;rounded=0;orthogonalLoop=1;jettySize=auto;html=1;entryX=0.75;entryY=1;entryDx=0;entryDy=0;fontSize=7;endArrow=none;endFill=0;" parent="1" source="MKDejTEfUFbS2tOspgIM-66" target="MKDejTEfUFbS2tOspgIM-2" edge="1">
          <mxGeometry relative="1" as="geometry">
            <Array as="points">
              <mxPoint x="130" y="1150" />
              <mxPoint x="760" y="1150" />
              <mxPoint x="760" y="460" />
            </Array>
          </mxGeometry>
        </mxCell>
        <mxCell id="MKDejTEfUFbS2tOspgIM-66" value="Driver Moteur 2" style="whiteSpace=wrap;html=1;aspect=fixed;strokeWidth=1;fillColor=#e1d5e7;strokeColor=#9673a6;" parent="1" vertex="1">
          <mxGeometry x="100" y="920" width="100" height="100" as="geometry" />
        </mxCell>
        <mxCell id="MKDejTEfUFbS2tOspgIM-67" value="" style="group" parent="1" vertex="1" connectable="0">
          <mxGeometry x="225" y="1020" width="10" height="15" as="geometry" />
        </mxCell>
        <mxCell id="MKDejTEfUFbS2tOspgIM-68" value="" style="strokeWidth=1;html=1;shape=mxgraph.flowchart.annotation_2;align=left;labelPosition=right;pointerEvents=1;rotation=90;" parent="MKDejTEfUFbS2tOspgIM-67" vertex="1">
          <mxGeometry x="-2.5" y="2.5" width="15" height="10" as="geometry" />
        </mxCell>
        <mxCell id="MKDejTEfUFbS2tOspgIM-69" value="" style="endArrow=none;html=1;rounded=0;" parent="MKDejTEfUFbS2tOspgIM-67" edge="1">
          <mxGeometry width="50" height="50" relative="1" as="geometry">
            <mxPoint x="4.919999999999959" y="12.5" as="sourcePoint" />
            <mxPoint x="4.919999999999959" y="2.5" as="targetPoint" />
            <Array as="points">
              <mxPoint x="4.919999999999959" y="2.5" />
            </Array>
          </mxGeometry>
        </mxCell>
        <mxCell id="MKDejTEfUFbS2tOspgIM-70" value="" style="endArrow=none;html=1;rounded=0;entryX=0;entryY=0.5;entryDx=0;entryDy=0;entryPerimeter=0;" parent="1" target="MKDejTEfUFbS2tOspgIM-68" edge="1">
          <mxGeometry width="50" height="50" relative="1" as="geometry">
            <mxPoint x="200" y="1010" as="sourcePoint" />
            <mxPoint x="220" y="1010" as="targetPoint" />
            <Array as="points">
              <mxPoint x="215" y="1010" />
              <mxPoint x="230" y="1010" />
            </Array>
          </mxGeometry>
        </mxCell>
        <mxCell id="MKDejTEfUFbS2tOspgIM-71" value="&lt;font style=&quot;font-size: 7px;&quot;&gt;GND&lt;/font&gt;" style="text;html=1;align=center;verticalAlign=middle;resizable=0;points=[];autosize=1;strokeColor=none;fillColor=none;" parent="1" vertex="1">
          <mxGeometry x="191" y="999" width="40" height="30" as="geometry" />
        </mxCell>
        <mxCell id="MKDejTEfUFbS2tOspgIM-72" value="&lt;font style=&quot;font-size: 7px;&quot;&gt;VDD&lt;/font&gt;" style="text;html=1;align=center;verticalAlign=middle;resizable=0;points=[];autosize=1;strokeColor=none;fillColor=none;" parent="1" vertex="1">
          <mxGeometry x="60" y="910" width="40" height="30" as="geometry" />
        </mxCell>
        <mxCell id="MKDejTEfUFbS2tOspgIM-73" value="&lt;font style=&quot;font-size: 7px;&quot;&gt;VRef&lt;/font&gt;" style="text;html=1;align=center;verticalAlign=middle;resizable=0;points=[];autosize=1;strokeColor=none;fillColor=none;" parent="1" vertex="1">
          <mxGeometry x="200" y="910" width="40" height="30" as="geometry" />
        </mxCell>
        <mxCell id="MKDejTEfUFbS2tOspgIM-74" value="" style="endArrow=none;html=1;rounded=0;fontSize=7;entryX=-0.009;entryY=1.054;entryDx=0;entryDy=0;entryPerimeter=0;startArrow=none;" parent="1" target="MKDejTEfUFbS2tOspgIM-73" edge="1">
          <mxGeometry width="50" height="50" relative="1" as="geometry">
            <mxPoint x="160" y="880" as="sourcePoint" />
            <mxPoint x="100" y="890" as="targetPoint" />
            <Array as="points">
              <mxPoint x="240" y="880" />
              <mxPoint x="240" y="942" />
            </Array>
          </mxGeometry>
        </mxCell>
        <mxCell id="MKDejTEfUFbS2tOspgIM-75" style="edgeStyle=orthogonalEdgeStyle;rounded=0;orthogonalLoop=1;jettySize=auto;html=1;exitX=0.5;exitY=0;exitDx=0;exitDy=0;fontSize=7;endArrow=none;endFill=0;" parent="1" source="MKDejTEfUFbS2tOspgIM-77" edge="1">
          <mxGeometry relative="1" as="geometry">
            <mxPoint x="79.96491228070181" y="940" as="targetPoint" />
          </mxGeometry>
        </mxCell>
        <mxCell id="MKDejTEfUFbS2tOspgIM-76" style="edgeStyle=orthogonalEdgeStyle;rounded=0;orthogonalLoop=1;jettySize=auto;html=1;exitX=0.5;exitY=1;exitDx=0;exitDy=0;fontSize=7;endArrow=none;endFill=0;" parent="1" source="MKDejTEfUFbS2tOspgIM-77" edge="1">
          <mxGeometry relative="1" as="geometry">
            <mxPoint x="79.96491228070181" y="980" as="targetPoint" />
          </mxGeometry>
        </mxCell>
        <mxCell id="MKDejTEfUFbS2tOspgIM-77" value="C" style="whiteSpace=wrap;html=1;aspect=fixed;fillColor=#ffe6cc;strokeColor=#d79b00;" parent="1" vertex="1">
          <mxGeometry x="70" y="950" width="20" height="20" as="geometry" />
        </mxCell>
        <mxCell id="MKDejTEfUFbS2tOspgIM-79" value="" style="endArrow=none;html=1;rounded=0;fontSize=7;entryX=0;entryY=0.5;entryDx=0;entryDy=0;" parent="1" edge="1">
          <mxGeometry width="50" height="50" relative="1" as="geometry">
            <mxPoint x="50" y="940" as="sourcePoint" />
            <mxPoint x="160" y="880" as="targetPoint" />
            <Array as="points">
              <mxPoint x="50" y="880" />
            </Array>
          </mxGeometry>
        </mxCell>
        <mxCell id="MKDejTEfUFbS2tOspgIM-85" value="" style="group" parent="1" vertex="1" connectable="0">
          <mxGeometry x="75" y="980" width="10" height="15" as="geometry" />
        </mxCell>
        <mxCell id="MKDejTEfUFbS2tOspgIM-86" value="" style="strokeWidth=1;html=1;shape=mxgraph.flowchart.annotation_2;align=left;labelPosition=right;pointerEvents=1;rotation=90;" parent="MKDejTEfUFbS2tOspgIM-85" vertex="1">
          <mxGeometry x="-2.5" y="2.5" width="15" height="10" as="geometry" />
        </mxCell>
        <mxCell id="MKDejTEfUFbS2tOspgIM-87" value="" style="endArrow=none;html=1;rounded=0;" parent="MKDejTEfUFbS2tOspgIM-85" edge="1">
          <mxGeometry width="50" height="50" relative="1" as="geometry">
            <mxPoint x="4.919999999999959" y="12.5" as="sourcePoint" />
            <mxPoint x="4.919999999999959" y="2.5" as="targetPoint" />
            <Array as="points">
              <mxPoint x="4.919999999999959" y="2.5" />
            </Array>
          </mxGeometry>
        </mxCell>
        <mxCell id="MKDejTEfUFbS2tOspgIM-89" style="edgeStyle=orthogonalEdgeStyle;rounded=0;orthogonalLoop=1;jettySize=auto;html=1;entryX=1.009;entryY=0.552;entryDx=0;entryDy=0;entryPerimeter=0;fontSize=7;endArrow=none;endFill=0;" parent="1" source="MKDejTEfUFbS2tOspgIM-91" target="MKDejTEfUFbS2tOspgIM-66" edge="1">
          <mxGeometry relative="1" as="geometry" />
        </mxCell>
        <mxCell id="MKDejTEfUFbS2tOspgIM-174" style="edgeStyle=orthogonalEdgeStyle;rounded=0;orthogonalLoop=1;jettySize=auto;html=1;exitX=0.5;exitY=1;exitDx=0;exitDy=0;fontSize=7;endArrow=none;endFill=0;" parent="1" source="MKDejTEfUFbS2tOspgIM-91" edge="1">
          <mxGeometry relative="1" as="geometry">
            <mxPoint x="510" y="420" as="targetPoint" />
          </mxGeometry>
        </mxCell>
        <mxCell id="MKDejTEfUFbS2tOspgIM-188" style="edgeStyle=orthogonalEdgeStyle;rounded=0;orthogonalLoop=1;jettySize=auto;html=1;exitX=1;exitY=0;exitDx=0;exitDy=0;entryX=0;entryY=0.5;entryDx=0;entryDy=0;fontSize=7;endArrow=none;endFill=0;" parent="1" source="MKDejTEfUFbS2tOspgIM-91" target="MKDejTEfUFbS2tOspgIM-2" edge="1">
          <mxGeometry relative="1" as="geometry">
            <Array as="points">
              <mxPoint x="620" y="1055" />
              <mxPoint x="620" y="350" />
              <mxPoint x="664" y="350" />
            </Array>
          </mxGeometry>
        </mxCell>
        <mxCell id="MKDejTEfUFbS2tOspgIM-189" style="edgeStyle=orthogonalEdgeStyle;rounded=0;orthogonalLoop=1;jettySize=auto;html=1;exitX=0.5;exitY=0;exitDx=0;exitDy=0;entryX=-0.002;entryY=0.41;entryDx=0;entryDy=0;entryPerimeter=0;fontSize=7;endArrow=none;endFill=0;" parent="1" source="MKDejTEfUFbS2tOspgIM-91" target="MKDejTEfUFbS2tOspgIM-2" edge="1">
          <mxGeometry relative="1" as="geometry">
            <Array as="points">
              <mxPoint x="610" y="1047" />
              <mxPoint x="610" y="342" />
            </Array>
          </mxGeometry>
        </mxCell>
        <mxCell id="MKDejTEfUFbS2tOspgIM-197" style="edgeStyle=orthogonalEdgeStyle;rounded=0;orthogonalLoop=1;jettySize=auto;html=1;exitX=0;exitY=0;exitDx=0;exitDy=0;entryX=1.001;entryY=0.381;entryDx=0;entryDy=0;entryPerimeter=0;fontSize=7;endArrow=none;endFill=0;" parent="1" source="MKDejTEfUFbS2tOspgIM-91" target="MKDejTEfUFbS2tOspgIM-66" edge="1">
          <mxGeometry relative="1" as="geometry">
            <Array as="points">
              <mxPoint x="290" y="1055" />
              <mxPoint x="290" y="958" />
            </Array>
          </mxGeometry>
        </mxCell>
        <mxCell id="MKDejTEfUFbS2tOspgIM-91" value="Moteur MCC 2" style="ellipse;whiteSpace=wrap;html=1;aspect=fixed;strokeWidth=1;fontSize=7;fillColor=#d5e8d4;strokeColor=#82b366;" parent="1" vertex="1">
          <mxGeometry x="285" y="1046.5" width="55" height="55" as="geometry" />
        </mxCell>
        <mxCell id="MKDejTEfUFbS2tOspgIM-92" value="&lt;span style=&quot;font-size: 7px;&quot;&gt;O1&lt;/span&gt;" style="text;html=1;align=center;verticalAlign=middle;resizable=0;points=[];autosize=1;strokeColor=none;fillColor=none;" parent="1" vertex="1">
          <mxGeometry x="196" y="965" width="30" height="30" as="geometry" />
        </mxCell>
        <mxCell id="MKDejTEfUFbS2tOspgIM-94" value="" style="endArrow=none;html=1;rounded=0;fontSize=7;" parent="1" edge="1">
          <mxGeometry width="50" height="50" relative="1" as="geometry">
            <mxPoint x="30" y="940" as="sourcePoint" />
            <mxPoint x="30" y="660" as="targetPoint" />
          </mxGeometry>
        </mxCell>
        <mxCell id="MKDejTEfUFbS2tOspgIM-95" value="" style="endArrow=none;html=1;rounded=0;fontSize=7;entryX=0.973;entryY=1.015;entryDx=0;entryDy=0;entryPerimeter=0;" parent="1" target="MKDejTEfUFbS2tOspgIM-72" edge="1">
          <mxGeometry width="50" height="50" relative="1" as="geometry">
            <mxPoint x="30" y="940" as="sourcePoint" />
            <mxPoint x="70" y="920" as="targetPoint" />
          </mxGeometry>
        </mxCell>
        <mxCell id="MKDejTEfUFbS2tOspgIM-101" value="" style="endArrow=none;html=1;rounded=0;fontSize=7;" parent="1" edge="1">
          <mxGeometry width="50" height="50" relative="1" as="geometry">
            <mxPoint x="30" y="723" as="sourcePoint" />
            <mxPoint x="100" y="722.5" as="targetPoint" />
          </mxGeometry>
        </mxCell>
        <mxCell id="MKDejTEfUFbS2tOspgIM-102" style="edgeStyle=orthogonalEdgeStyle;rounded=0;orthogonalLoop=1;jettySize=auto;html=1;exitX=0.5;exitY=0;exitDx=0;exitDy=0;fontSize=7;endArrow=none;endFill=0;" parent="1" source="MKDejTEfUFbS2tOspgIM-104" edge="1">
          <mxGeometry relative="1" as="geometry">
            <mxPoint x="74.96491228070175" y="723" as="targetPoint" />
          </mxGeometry>
        </mxCell>
        <mxCell id="MKDejTEfUFbS2tOspgIM-103" style="edgeStyle=orthogonalEdgeStyle;rounded=0;orthogonalLoop=1;jettySize=auto;html=1;exitX=0.5;exitY=1;exitDx=0;exitDy=0;fontSize=7;endArrow=none;endFill=0;" parent="1" source="MKDejTEfUFbS2tOspgIM-104" edge="1">
          <mxGeometry relative="1" as="geometry">
            <mxPoint x="74.96491228070175" y="763" as="targetPoint" />
          </mxGeometry>
        </mxCell>
        <mxCell id="MKDejTEfUFbS2tOspgIM-104" value="C" style="whiteSpace=wrap;html=1;aspect=fixed;fillColor=#ffe6cc;strokeColor=#d79b00;" parent="1" vertex="1">
          <mxGeometry x="65" y="733" width="20" height="20" as="geometry" />
        </mxCell>
        <mxCell id="MKDejTEfUFbS2tOspgIM-105" value="" style="group" parent="1" vertex="1" connectable="0">
          <mxGeometry x="70" y="763" width="10" height="15" as="geometry" />
        </mxCell>
        <mxCell id="MKDejTEfUFbS2tOspgIM-106" value="" style="strokeWidth=1;html=1;shape=mxgraph.flowchart.annotation_2;align=left;labelPosition=right;pointerEvents=1;rotation=90;" parent="MKDejTEfUFbS2tOspgIM-105" vertex="1">
          <mxGeometry x="-2.5" y="2.5" width="15" height="10" as="geometry" />
        </mxCell>
        <mxCell id="MKDejTEfUFbS2tOspgIM-107" value="" style="endArrow=none;html=1;rounded=0;" parent="MKDejTEfUFbS2tOspgIM-105" edge="1">
          <mxGeometry width="50" height="50" relative="1" as="geometry">
            <mxPoint x="4.919999999999959" y="12.5" as="sourcePoint" />
            <mxPoint x="4.919999999999959" y="2.5" as="targetPoint" />
            <Array as="points">
              <mxPoint x="4.919999999999959" y="2.5" />
            </Array>
          </mxGeometry>
        </mxCell>
        <mxCell id="MKDejTEfUFbS2tOspgIM-108" value="&lt;font style=&quot;font-size: 7px;&quot;&gt;Vm&lt;/font&gt;" style="text;html=1;align=center;verticalAlign=middle;resizable=0;points=[];autosize=1;strokeColor=none;fillColor=none;" parent="1" vertex="1">
          <mxGeometry x="75" y="710" width="30" height="30" as="geometry" />
        </mxCell>
        <mxCell id="MKDejTEfUFbS2tOspgIM-112" value="" style="endArrow=none;html=1;rounded=0;fontSize=7;" parent="1" edge="1">
          <mxGeometry width="50" height="50" relative="1" as="geometry">
            <mxPoint x="30" y="1006.5" as="sourcePoint" />
            <mxPoint x="100.00000000000003" y="1006" as="targetPoint" />
          </mxGeometry>
        </mxCell>
        <mxCell id="MKDejTEfUFbS2tOspgIM-113" style="edgeStyle=orthogonalEdgeStyle;rounded=0;orthogonalLoop=1;jettySize=auto;html=1;exitX=0.5;exitY=0;exitDx=0;exitDy=0;fontSize=7;endArrow=none;endFill=0;" parent="1" source="MKDejTEfUFbS2tOspgIM-115" edge="1">
          <mxGeometry relative="1" as="geometry">
            <mxPoint x="74.96491228070175" y="1006.5" as="targetPoint" />
          </mxGeometry>
        </mxCell>
        <mxCell id="MKDejTEfUFbS2tOspgIM-114" style="edgeStyle=orthogonalEdgeStyle;rounded=0;orthogonalLoop=1;jettySize=auto;html=1;exitX=0.5;exitY=1;exitDx=0;exitDy=0;fontSize=7;endArrow=none;endFill=0;" parent="1" source="MKDejTEfUFbS2tOspgIM-115" edge="1">
          <mxGeometry relative="1" as="geometry">
            <mxPoint x="74.96491228070175" y="1046.5" as="targetPoint" />
          </mxGeometry>
        </mxCell>
        <mxCell id="MKDejTEfUFbS2tOspgIM-115" value="C" style="whiteSpace=wrap;html=1;aspect=fixed;fillColor=#ffe6cc;strokeColor=#d79b00;" parent="1" vertex="1">
          <mxGeometry x="65" y="1016.5" width="20" height="20" as="geometry" />
        </mxCell>
        <mxCell id="MKDejTEfUFbS2tOspgIM-116" value="" style="group" parent="1" vertex="1" connectable="0">
          <mxGeometry x="70" y="1046.5" width="10" height="15" as="geometry" />
        </mxCell>
        <mxCell id="MKDejTEfUFbS2tOspgIM-117" value="" style="strokeWidth=1;html=1;shape=mxgraph.flowchart.annotation_2;align=left;labelPosition=right;pointerEvents=1;rotation=90;" parent="MKDejTEfUFbS2tOspgIM-116" vertex="1">
          <mxGeometry x="-2.5" y="2.5" width="15" height="10" as="geometry" />
        </mxCell>
        <mxCell id="MKDejTEfUFbS2tOspgIM-118" value="" style="endArrow=none;html=1;rounded=0;" parent="MKDejTEfUFbS2tOspgIM-116" edge="1">
          <mxGeometry width="50" height="50" relative="1" as="geometry">
            <mxPoint x="4.919999999999959" y="12.5" as="sourcePoint" />
            <mxPoint x="4.919999999999959" y="2.5" as="targetPoint" />
            <Array as="points">
              <mxPoint x="4.919999999999959" y="2.5" />
            </Array>
          </mxGeometry>
        </mxCell>
        <mxCell id="MKDejTEfUFbS2tOspgIM-119" value="&lt;font style=&quot;font-size: 7px;&quot;&gt;Vm&lt;/font&gt;" style="text;html=1;align=center;verticalAlign=middle;resizable=0;points=[];autosize=1;strokeColor=none;fillColor=none;" parent="1" vertex="1">
          <mxGeometry x="75" y="993.5" width="30" height="30" as="geometry" />
        </mxCell>
        <mxCell id="MKDejTEfUFbS2tOspgIM-120" value="" style="endArrow=none;html=1;rounded=0;fontSize=7;" parent="1" edge="1">
          <mxGeometry width="50" height="50" relative="1" as="geometry">
            <mxPoint x="30" y="1007" as="sourcePoint" />
            <mxPoint x="30" y="937" as="targetPoint" />
          </mxGeometry>
        </mxCell>
        <mxCell id="MKDejTEfUFbS2tOspgIM-121" value="FWD" style="text;html=1;strokeColor=none;fillColor=none;align=center;verticalAlign=middle;whiteSpace=wrap;rounded=0;strokeWidth=1;fontSize=7;" parent="1" vertex="1">
          <mxGeometry x="85" y="733" width="60" height="30" as="geometry" />
        </mxCell>
        <mxCell id="MKDejTEfUFbS2tOspgIM-122" value="REV" style="text;html=1;strokeColor=none;fillColor=none;align=center;verticalAlign=middle;whiteSpace=wrap;rounded=0;strokeWidth=1;fontSize=7;" parent="1" vertex="1">
          <mxGeometry x="131" y="732.5" width="60" height="30" as="geometry" />
        </mxCell>
        <mxCell id="MKDejTEfUFbS2tOspgIM-123" value="FWD" style="text;html=1;strokeColor=none;fillColor=none;align=center;verticalAlign=middle;whiteSpace=wrap;rounded=0;strokeWidth=1;fontSize=7;" parent="1" vertex="1">
          <mxGeometry x="90" y="1016.5" width="60" height="30" as="geometry" />
        </mxCell>
        <mxCell id="MKDejTEfUFbS2tOspgIM-124" value="REV" style="text;html=1;strokeColor=none;fillColor=none;align=center;verticalAlign=middle;whiteSpace=wrap;rounded=0;strokeWidth=1;fontSize=7;" parent="1" vertex="1">
          <mxGeometry x="131" y="1016.5" width="60" height="30" as="geometry" />
        </mxCell>
        <mxCell id="MKDejTEfUFbS2tOspgIM-126" value="M+" style="text;html=1;strokeColor=none;fillColor=none;align=center;verticalAlign=middle;whiteSpace=wrap;rounded=0;strokeWidth=1;fontSize=7;rotation=0;" parent="1" vertex="1">
          <mxGeometry x="227" y="777" width="60" height="30" as="geometry" />
        </mxCell>
        <mxCell id="MKDejTEfUFbS2tOspgIM-138" style="edgeStyle=orthogonalEdgeStyle;rounded=0;orthogonalLoop=1;jettySize=auto;html=1;fontSize=7;endArrow=none;endFill=0;" parent="1" source="MKDejTEfUFbS2tOspgIM-132" target="MKDejTEfUFbS2tOspgIM-91" edge="1">
          <mxGeometry relative="1" as="geometry">
            <Array as="points">
              <mxPoint x="350" y="1070" />
              <mxPoint x="350" y="1070" />
            </Array>
          </mxGeometry>
        </mxCell>
        <mxCell id="MKDejTEfUFbS2tOspgIM-132" value="GND" style="rounded=1;whiteSpace=wrap;html=1;strokeWidth=1;fontSize=7;fillColor=#b1ddf0;strokeColor=#10739e;" parent="1" vertex="1">
          <mxGeometry x="360" y="1064" width="30" height="10" as="geometry" />
        </mxCell>
        <mxCell id="MKDejTEfUFbS2tOspgIM-136" style="edgeStyle=orthogonalEdgeStyle;rounded=0;orthogonalLoop=1;jettySize=auto;html=1;entryX=0;entryY=1;entryDx=0;entryDy=0;fontSize=7;endArrow=none;endFill=0;" parent="1" source="MKDejTEfUFbS2tOspgIM-134" target="MKDejTEfUFbS2tOspgIM-57" edge="1">
          <mxGeometry relative="1" as="geometry">
            <Array as="points">
              <mxPoint x="283" y="830" />
            </Array>
          </mxGeometry>
        </mxCell>
        <mxCell id="MKDejTEfUFbS2tOspgIM-134" value="GND" style="rounded=1;whiteSpace=wrap;html=1;strokeWidth=1;fontSize=7;fillColor=#b1ddf0;strokeColor=#10739e;" parent="1" vertex="1">
          <mxGeometry x="245" y="825" width="30" height="10" as="geometry" />
        </mxCell>
        <mxCell id="MKDejTEfUFbS2tOspgIM-173" style="edgeStyle=orthogonalEdgeStyle;rounded=0;orthogonalLoop=1;jettySize=auto;html=1;exitX=1;exitY=0.5;exitDx=0;exitDy=0;fontSize=7;endArrow=none;endFill=0;" parent="1" source="MKDejTEfUFbS2tOspgIM-141" edge="1">
          <mxGeometry relative="1" as="geometry">
            <mxPoint x="303" y="770" as="targetPoint" />
            <Array as="points">
              <mxPoint x="510" y="120" />
              <mxPoint x="510" y="440" />
              <mxPoint x="360" y="440" />
              <mxPoint x="360" y="770" />
            </Array>
          </mxGeometry>
        </mxCell>
        <mxCell id="MKDejTEfUFbS2tOspgIM-141" value="&lt;font style=&quot;font-size: 15px;&quot;&gt;Regulateur 5V&lt;/font&gt;" style="whiteSpace=wrap;html=1;aspect=fixed;strokeWidth=1;fontSize=7;fillColor=#b1ddf0;strokeColor=#10739e;" parent="1" vertex="1">
          <mxGeometry x="264" y="70" width="100" height="100" as="geometry" />
        </mxCell>
        <mxCell id="MKDejTEfUFbS2tOspgIM-163" style="edgeStyle=orthogonalEdgeStyle;rounded=0;orthogonalLoop=1;jettySize=auto;html=1;entryX=0.5;entryY=1;entryDx=0;entryDy=0;fontSize=15;endArrow=none;endFill=0;" parent="1" source="MKDejTEfUFbS2tOspgIM-148" target="MKDejTEfUFbS2tOspgIM-141" edge="1">
          <mxGeometry relative="1" as="geometry" />
        </mxCell>
        <mxCell id="MKDejTEfUFbS2tOspgIM-148" value="GND" style="rounded=1;whiteSpace=wrap;html=1;strokeWidth=1;fontSize=7;fillColor=#b1ddf0;strokeColor=#10739e;arcSize=0;" parent="1" vertex="1">
          <mxGeometry x="299" y="190" width="30" height="10" as="geometry" />
        </mxCell>
        <mxCell id="33VA1eLPJi6Qy8k9FSGy-17" value="" style="edgeStyle=orthogonalEdgeStyle;rounded=0;orthogonalLoop=1;jettySize=auto;html=1;endArrow=none;endFill=0;" parent="1" source="33VA1eLPJi6Qy8k9FSGy-16" target="43Q_XorwH1pVwPc8YvhM-3" edge="1">
          <mxGeometry relative="1" as="geometry" />
        </mxCell>
        <mxCell id="MKDejTEfUFbS2tOspgIM-151" value="Vin" style="text;html=1;strokeColor=none;fillColor=none;align=center;verticalAlign=middle;whiteSpace=wrap;rounded=0;strokeWidth=1;fontSize=15;" parent="1" vertex="1">
          <mxGeometry x="210" y="90" width="60" height="30" as="geometry" />
        </mxCell>
        <mxCell id="33VA1eLPJi6Qy8k9FSGy-16" value="GND" style="rounded=1;whiteSpace=wrap;html=1;strokeWidth=1;fontSize=7;fillColor=#b1ddf0;strokeColor=#10739e;" parent="1" vertex="1">
          <mxGeometry x="1125" y="825" width="30" height="10" as="geometry" />
        </mxCell>
        <mxCell id="MKDejTEfUFbS2tOspgIM-152" value="Vout" style="text;html=1;strokeColor=none;fillColor=none;align=center;verticalAlign=middle;whiteSpace=wrap;rounded=0;strokeWidth=1;fontSize=15;" parent="1" vertex="1">
          <mxGeometry x="360" y="90" width="60" height="30" as="geometry" />
        </mxCell>
        <mxCell id="33VA1eLPJi6Qy8k9FSGy-19" value="" style="edgeStyle=orthogonalEdgeStyle;rounded=0;orthogonalLoop=1;jettySize=auto;html=1;endArrow=none;endFill=0;" parent="1" source="33VA1eLPJi6Qy8k9FSGy-18" target="AZ--ULnY_lqlN4T8WkKu-5" edge="1">
          <mxGeometry relative="1" as="geometry" />
        </mxCell>
        <mxCell id="MKDejTEfUFbS2tOspgIM-154" value="&lt;font style=&quot;font-size: 15px;&quot;&gt;Regulateur 3,3V&lt;/font&gt;" style="whiteSpace=wrap;html=1;aspect=fixed;strokeWidth=1;fontSize=7;fillColor=#b1ddf0;strokeColor=#10739e;" parent="1" vertex="1">
          <mxGeometry x="1420" y="80" width="100" height="100" as="geometry" />
        </mxCell>
        <mxCell id="33VA1eLPJi6Qy8k9FSGy-18" value="GND" style="rounded=1;whiteSpace=wrap;html=1;strokeWidth=1;fontSize=7;fillColor=#b1ddf0;strokeColor=#10739e;" parent="1" vertex="1">
          <mxGeometry x="1295" y="630" width="30" height="10" as="geometry" />
        </mxCell>
        <mxCell id="MKDejTEfUFbS2tOspgIM-159" value="Vin" style="text;html=1;strokeColor=none;fillColor=none;align=center;verticalAlign=middle;whiteSpace=wrap;rounded=0;strokeWidth=1;fontSize=15;" parent="1" vertex="1">
          <mxGeometry x="1455" y="40" width="60" height="30" as="geometry" />
        </mxCell>
        <mxCell id="33VA1eLPJi6Qy8k9FSGy-21" style="edgeStyle=orthogonalEdgeStyle;rounded=0;orthogonalLoop=1;jettySize=auto;html=1;exitX=0.25;exitY=0;exitDx=0;exitDy=0;endArrow=none;endFill=0;" parent="1" source="33VA1eLPJi6Qy8k9FSGy-20" edge="1">
          <mxGeometry relative="1" as="geometry">
            <mxPoint x="800" y="460" as="targetPoint" />
          </mxGeometry>
        </mxCell>
        <mxCell id="MKDejTEfUFbS2tOspgIM-166" style="edgeStyle=orthogonalEdgeStyle;rounded=0;orthogonalLoop=1;jettySize=auto;html=1;entryX=0.5;entryY=1;entryDx=0;entryDy=0;fontSize=15;endArrow=none;endFill=0;" parent="1" source="MKDejTEfUFbS2tOspgIM-165" target="MKDejTEfUFbS2tOspgIM-154" edge="1">
          <mxGeometry relative="1" as="geometry" />
        </mxCell>
        <mxCell id="33VA1eLPJi6Qy8k9FSGy-22" style="edgeStyle=orthogonalEdgeStyle;rounded=0;orthogonalLoop=1;jettySize=auto;html=1;exitX=0.5;exitY=0;exitDx=0;exitDy=0;endArrow=none;endFill=0;" parent="1" source="33VA1eLPJi6Qy8k9FSGy-20" edge="1">
          <mxGeometry relative="1" as="geometry">
            <mxPoint x="820" y="460" as="targetPoint" />
            <Array as="points">
              <mxPoint x="965" y="600" />
              <mxPoint x="820" y="600" />
            </Array>
          </mxGeometry>
        </mxCell>
        <mxCell id="MKDejTEfUFbS2tOspgIM-165" value="GND" style="rounded=1;whiteSpace=wrap;html=1;strokeWidth=1;fontSize=7;fillColor=#b1ddf0;strokeColor=#10739e;arcSize=0;" parent="1" vertex="1">
          <mxGeometry x="1455" y="200" width="30" height="10" as="geometry" />
        </mxCell>
        <mxCell id="33VA1eLPJi6Qy8k9FSGy-23" style="edgeStyle=orthogonalEdgeStyle;rounded=0;orthogonalLoop=1;jettySize=auto;html=1;exitX=0.75;exitY=0;exitDx=0;exitDy=0;entryX=0.877;entryY=1.004;entryDx=0;entryDy=0;endArrow=none;endFill=0;entryPerimeter=0;" parent="1" source="33VA1eLPJi6Qy8k9FSGy-20" target="MKDejTEfUFbS2tOspgIM-2" edge="1">
          <mxGeometry relative="1" as="geometry">
            <Array as="points">
              <mxPoint x="995" y="590" />
              <mxPoint x="839" y="590" />
            </Array>
          </mxGeometry>
        </mxCell>
        <mxCell id="MKDejTEfUFbS2tOspgIM-167" value="&lt;font style=&quot;font-size: 7px;&quot;&gt;M+&lt;/font&gt;" style="text;html=1;strokeColor=none;fillColor=none;align=center;verticalAlign=middle;whiteSpace=wrap;rounded=0;strokeWidth=1;fontSize=15;" parent="1" vertex="1">
          <mxGeometry x="235" y="1044" width="60" height="30" as="geometry" />
        </mxCell>
        <mxCell id="33VA1eLPJi6Qy8k9FSGy-24" style="edgeStyle=orthogonalEdgeStyle;rounded=0;orthogonalLoop=1;jettySize=auto;html=1;exitX=1;exitY=0;exitDx=0;exitDy=0;entryX=0.98;entryY=1.002;entryDx=0;entryDy=0;endArrow=none;endFill=0;entryPerimeter=0;" parent="1" source="33VA1eLPJi6Qy8k9FSGy-20" target="MKDejTEfUFbS2tOspgIM-2" edge="1">
          <mxGeometry relative="1" as="geometry">
            <Array as="points">
              <mxPoint x="1025" y="580" />
              <mxPoint x="860" y="580" />
            </Array>
          </mxGeometry>
        </mxCell>
        <mxCell id="MKDejTEfUFbS2tOspgIM-175" value="&lt;font style=&quot;font-size: 7px;&quot;&gt;Vcc Encoder&lt;/font&gt;" style="text;html=1;strokeColor=none;fillColor=none;align=center;verticalAlign=middle;whiteSpace=wrap;rounded=0;strokeWidth=1;fontSize=15;" parent="1" vertex="1">
          <mxGeometry x="317" y="1091.5" width="60" height="30" as="geometry" />
        </mxCell>
        <mxCell id="MKDejTEfUFbS2tOspgIM-176" value="&lt;font style=&quot;font-size: 7px;&quot;&gt;Vcc Encoder&lt;/font&gt;" style="text;html=1;strokeColor=none;fillColor=none;align=center;verticalAlign=middle;whiteSpace=wrap;rounded=0;strokeWidth=1;fontSize=15;" parent="1" vertex="1">
          <mxGeometry x="290" y="740" width="60" height="30" as="geometry" />
        </mxCell>
        <mxCell id="MKDejTEfUFbS2tOspgIM-190" value="PHASE A 2" style="text;html=1;strokeColor=none;fillColor=none;align=center;verticalAlign=middle;whiteSpace=wrap;rounded=0;strokeWidth=1;fontSize=7;" parent="1" vertex="1">
          <mxGeometry x="317" y="1023.5" width="60" height="30" as="geometry" />
        </mxCell>
        <mxCell id="MKDejTEfUFbS2tOspgIM-191" value="PHASE B 2" style="text;html=1;strokeColor=none;fillColor=none;align=center;verticalAlign=middle;whiteSpace=wrap;rounded=0;strokeWidth=1;fontSize=7;" parent="1" vertex="1">
          <mxGeometry x="401" y="1047.5" width="60" height="30" as="geometry" />
        </mxCell>
        <mxCell id="MKDejTEfUFbS2tOspgIM-192" value="PHASE A 1" style="text;html=1;strokeColor=none;fillColor=none;align=center;verticalAlign=middle;whiteSpace=wrap;rounded=0;strokeWidth=1;fontSize=7;" parent="1" vertex="1">
          <mxGeometry x="381" y="779" width="60" height="30" as="geometry" />
        </mxCell>
        <mxCell id="MKDejTEfUFbS2tOspgIM-193" value="PHASE B 1" style="text;html=1;strokeColor=none;fillColor=none;align=center;verticalAlign=middle;whiteSpace=wrap;rounded=0;strokeWidth=1;fontSize=7;" parent="1" vertex="1">
          <mxGeometry x="386" y="805" width="60" height="30" as="geometry" />
        </mxCell>
        <mxCell id="MKDejTEfUFbS2tOspgIM-196" value="GPIO EXTI" style="text;html=1;strokeColor=none;fillColor=none;align=center;verticalAlign=middle;whiteSpace=wrap;rounded=0;strokeWidth=1;fontSize=7;" parent="1" vertex="1">
          <mxGeometry x="660" y="304" width="60" height="30" as="geometry" />
        </mxCell>
        <mxCell id="MKDejTEfUFbS2tOspgIM-198" value="&lt;span style=&quot;font-size: 7px;&quot;&gt;O2&lt;/span&gt;" style="text;html=1;align=center;verticalAlign=middle;resizable=0;points=[];autosize=1;strokeColor=none;fillColor=none;" parent="1" vertex="1">
          <mxGeometry x="197" y="948" width="30" height="30" as="geometry" />
        </mxCell>
        <mxCell id="MKDejTEfUFbS2tOspgIM-199" value="&lt;font style=&quot;font-size: 7px;&quot;&gt;M-&lt;/font&gt;" style="text;html=1;strokeColor=none;fillColor=none;align=center;verticalAlign=middle;whiteSpace=wrap;rounded=0;strokeWidth=1;fontSize=15;" parent="1" vertex="1">
          <mxGeometry x="250" y="993.5" width="60" height="30" as="geometry" />
        </mxCell>
        <mxCell id="MKDejTEfUFbS2tOspgIM-200" value="GPIO EXTI" style="text;html=1;strokeColor=none;fillColor=none;align=center;verticalAlign=middle;whiteSpace=wrap;rounded=0;strokeWidth=1;fontSize=7;" parent="1" vertex="1">
          <mxGeometry x="660" y="314.5" width="60" height="30" as="geometry" />
        </mxCell>
        <mxCell id="MKDejTEfUFbS2tOspgIM-201" value="GPIO EXTI" style="text;html=1;strokeColor=none;fillColor=none;align=center;verticalAlign=middle;whiteSpace=wrap;rounded=0;strokeWidth=1;fontSize=7;" parent="1" vertex="1">
          <mxGeometry x="659" y="326.5" width="60" height="30" as="geometry" />
        </mxCell>
        <mxCell id="MKDejTEfUFbS2tOspgIM-202" value="GPIO EXTI" style="text;html=1;strokeColor=none;fillColor=none;align=center;verticalAlign=middle;whiteSpace=wrap;rounded=0;strokeWidth=1;fontSize=7;" parent="1" vertex="1">
          <mxGeometry x="659" y="336.5" width="60" height="30" as="geometry" />
        </mxCell>
        <mxCell id="MKDejTEfUFbS2tOspgIM-203" value="PWM" style="text;html=1;strokeColor=none;fillColor=none;align=center;verticalAlign=middle;whiteSpace=wrap;rounded=0;strokeWidth=1;fontSize=7;rotation=-90;" parent="1" vertex="1">
          <mxGeometry x="670" y="430" width="60" height="30" as="geometry" />
        </mxCell>
        <mxCell id="MKDejTEfUFbS2tOspgIM-204" value="PWM" style="text;html=1;strokeColor=none;fillColor=none;align=center;verticalAlign=middle;whiteSpace=wrap;rounded=0;strokeWidth=1;fontSize=7;rotation=-90;" parent="1" vertex="1">
          <mxGeometry x="690" y="429" width="60" height="30" as="geometry" />
        </mxCell>
        <mxCell id="MKDejTEfUFbS2tOspgIM-205" value="PWM" style="text;html=1;strokeColor=none;fillColor=none;align=center;verticalAlign=middle;whiteSpace=wrap;rounded=0;strokeWidth=1;fontSize=7;rotation=-90;" parent="1" vertex="1">
          <mxGeometry x="710" y="430" width="60" height="30" as="geometry" />
        </mxCell>
        <mxCell id="MKDejTEfUFbS2tOspgIM-206" value="PWM" style="text;html=1;strokeColor=none;fillColor=none;align=center;verticalAlign=middle;whiteSpace=wrap;rounded=0;strokeWidth=1;fontSize=7;rotation=-90;" parent="1" vertex="1">
          <mxGeometry x="730" y="430" width="60" height="30" as="geometry" />
        </mxCell>
        <mxCell id="33VA1eLPJi6Qy8k9FSGy-29" value="" style="edgeStyle=orthogonalEdgeStyle;rounded=0;orthogonalLoop=1;jettySize=auto;html=1;entryX=0.844;entryY=0.996;entryDx=0;entryDy=0;entryPerimeter=0;endArrow=none;endFill=0;" parent="1" source="33VA1eLPJi6Qy8k9FSGy-20" target="MKDejTEfUFbS2tOspgIM-2" edge="1">
          <mxGeometry relative="1" as="geometry">
            <Array as="points">
              <mxPoint x="790" y="780" />
              <mxPoint x="790" y="459" />
            </Array>
          </mxGeometry>
        </mxCell>
        <mxCell id="33VA1eLPJi6Qy8k9FSGy-53" style="edgeStyle=orthogonalEdgeStyle;rounded=0;orthogonalLoop=1;jettySize=auto;html=1;exitX=0.75;exitY=1;exitDx=0;exitDy=0;fontSize=6;endArrow=none;endFill=0;" parent="1" source="33VA1eLPJi6Qy8k9FSGy-20" edge="1">
          <mxGeometry relative="1" as="geometry">
            <Array as="points">
              <mxPoint x="995" y="840" />
              <mxPoint x="1050" y="840" />
              <mxPoint x="1050" y="890" />
              <mxPoint x="1570" y="890" />
              <mxPoint x="1570" y="130" />
            </Array>
            <mxPoint x="1520" y="130" as="targetPoint" />
          </mxGeometry>
        </mxCell>
        <UserObject label="Capteur de couleur&lt;br&gt;2.7V" treeRoot="1" id="33VA1eLPJi6Qy8k9FSGy-20">
          <mxCell style="whiteSpace=wrap;html=1;align=center;treeFolding=1;treeMoving=1;newEdgeStyle={&quot;edgeStyle&quot;:&quot;elbowEdgeStyle&quot;,&quot;startArrow&quot;:&quot;none&quot;,&quot;endArrow&quot;:&quot;none&quot;};fillColor=#f5f5f5;fontColor=#333333;strokeColor=#666666;" parent="1" vertex="1">
            <mxGeometry x="905" y="750" width="120" height="60" as="geometry" />
          </mxCell>
        </UserObject>
        <mxCell id="33VA1eLPJi6Qy8k9FSGy-31" style="edgeStyle=orthogonalEdgeStyle;rounded=0;orthogonalLoop=1;jettySize=auto;html=1;entryX=0.25;entryY=0;entryDx=0;entryDy=0;endArrow=none;endFill=0;" parent="1" source="33VA1eLPJi6Qy8k9FSGy-30" target="MKDejTEfUFbS2tOspgIM-2" edge="1">
          <mxGeometry relative="1" as="geometry" />
        </mxCell>
        <UserObject label="Servomoteur" treeRoot="1" id="33VA1eLPJi6Qy8k9FSGy-30">
          <mxCell style="whiteSpace=wrap;html=1;align=center;treeFolding=1;treeMoving=1;newEdgeStyle={&quot;edgeStyle&quot;:&quot;elbowEdgeStyle&quot;,&quot;startArrow&quot;:&quot;none&quot;,&quot;endArrow&quot;:&quot;none&quot;};fillColor=#d5e8d4;strokeColor=#82b366;" parent="1" vertex="1">
            <mxGeometry x="620" y="100" width="120" height="60" as="geometry" />
          </mxCell>
        </UserObject>
        <mxCell id="MKDejTEfUFbS2tOspgIM-208" value="&lt;span style=&quot;font-size: 7px;&quot;&gt;O2&lt;/span&gt;" style="text;html=1;align=center;verticalAlign=middle;resizable=0;points=[];autosize=1;strokeColor=none;fillColor=none;" parent="1" vertex="1">
          <mxGeometry x="245" y="670" width="30" height="30" as="geometry" />
        </mxCell>
        <mxCell id="33VA1eLPJi6Qy8k9FSGy-34" style="edgeStyle=orthogonalEdgeStyle;rounded=0;orthogonalLoop=1;jettySize=auto;html=1;exitX=0.5;exitY=0;exitDx=0;exitDy=0;entryX=0.545;entryY=1.026;entryDx=0;entryDy=0;entryPerimeter=0;endArrow=none;endFill=0;" parent="1" source="33VA1eLPJi6Qy8k9FSGy-32" target="33VA1eLPJi6Qy8k9FSGy-20" edge="1">
          <mxGeometry relative="1" as="geometry" />
        </mxCell>
        <mxCell id="MKDejTEfUFbS2tOspgIM-209" value="M-" style="text;html=1;strokeColor=none;fillColor=none;align=center;verticalAlign=middle;whiteSpace=wrap;rounded=0;strokeWidth=1;fontSize=7;rotation=0;" parent="1" vertex="1">
          <mxGeometry x="240" y="755" width="60" height="30" as="geometry" />
        </mxCell>
        <mxCell id="33VA1eLPJi6Qy8k9FSGy-32" value="GND" style="rounded=1;whiteSpace=wrap;html=1;strokeWidth=1;fontSize=7;fillColor=#b1ddf0;strokeColor=#10739e;" parent="1" vertex="1">
          <mxGeometry x="955" y="825" width="30" height="10" as="geometry" />
        </mxCell>
        <mxCell id="33VA1eLPJi6Qy8k9FSGy-37" style="edgeStyle=orthogonalEdgeStyle;rounded=0;orthogonalLoop=1;jettySize=auto;html=1;exitX=0.5;exitY=1;exitDx=0;exitDy=0;entryX=0.5;entryY=0;entryDx=0;entryDy=0;endArrow=none;endFill=0;" parent="1" source="33VA1eLPJi6Qy8k9FSGy-35" target="33VA1eLPJi6Qy8k9FSGy-30" edge="1">
          <mxGeometry relative="1" as="geometry" />
        </mxCell>
        <mxCell id="33VA1eLPJi6Qy8k9FSGy-35" value="GND" style="rounded=1;whiteSpace=wrap;html=1;strokeWidth=1;fontSize=7;fillColor=#b1ddf0;strokeColor=#10739e;" parent="1" vertex="1">
          <mxGeometry x="665" y="70" width="30" height="10" as="geometry" />
        </mxCell>
        <mxCell id="33VA1eLPJi6Qy8k9FSGy-39" value="&lt;font style=&quot;font-size: 6px;&quot;&gt;GPIO OUT&lt;/font&gt;" style="edgeLabel;html=1;align=center;verticalAlign=middle;resizable=0;points=[];rotation=270;" parent="1" connectable="0" vertex="1">
          <mxGeometry x="810" y="444.000909090909" as="geometry">
            <mxPoint x="2.220446049250313e-15" y="-12" as="offset" />
          </mxGeometry>
        </mxCell>
        <mxCell id="33VA1eLPJi6Qy8k9FSGy-40" value="&lt;font style=&quot;font-size: 6px;&quot;&gt;GPIO OUT&lt;/font&gt;" style="edgeLabel;html=1;align=center;verticalAlign=middle;resizable=0;points=[];rotation=270;" parent="1" connectable="0" vertex="1">
          <mxGeometry x="820" y="440.000909090909" as="geometry">
            <mxPoint x="-3" y="-1" as="offset" />
          </mxGeometry>
        </mxCell>
        <mxCell id="33VA1eLPJi6Qy8k9FSGy-41" value="&lt;font style=&quot;font-size: 6px;&quot;&gt;GPIO OUT&lt;/font&gt;" style="edgeLabel;html=1;align=center;verticalAlign=middle;resizable=0;points=[];rotation=270;" parent="1" connectable="0" vertex="1">
          <mxGeometry x="840" y="440.000909090909" as="geometry">
            <mxPoint x="-3" y="-1" as="offset" />
          </mxGeometry>
        </mxCell>
        <mxCell id="33VA1eLPJi6Qy8k9FSGy-42" value="&lt;font style=&quot;font-size: 6px;&quot;&gt;GPIO IN&lt;/font&gt;" style="edgeLabel;html=1;align=center;verticalAlign=middle;resizable=0;points=[];rotation=270;" parent="1" connectable="0" vertex="1">
          <mxGeometry x="792" y="439.000909090909" as="geometry">
            <mxPoint x="-5" y="-4" as="offset" />
          </mxGeometry>
        </mxCell>
        <mxCell id="33VA1eLPJi6Qy8k9FSGy-43" value="&lt;font style=&quot;font-size: 6px;&quot;&gt;GPIO OUT&lt;/font&gt;" style="edgeLabel;html=1;align=center;verticalAlign=middle;resizable=0;points=[];rotation=270;" parent="1" connectable="0" vertex="1">
          <mxGeometry x="840" y="450.000909090909" as="geometry">
            <mxPoint x="6.999999999999998" y="11.000000000000002" as="offset" />
          </mxGeometry>
        </mxCell>
        <mxCell id="MKDejTEfUFbS2tOspgIM-214" value="&lt;font style=&quot;font-size: 10px;&quot;&gt;Vin&lt;/font&gt;" style="text;html=1;strokeColor=none;fillColor=none;align=center;verticalAlign=middle;whiteSpace=wrap;rounded=0;strokeWidth=1;fontSize=15;rotation=-90;" parent="1" vertex="1">
          <mxGeometry x="695" y="103" width="60" height="30" as="geometry" />
        </mxCell>
        <mxCell id="33VA1eLPJi6Qy8k9FSGy-46" value="GPIO OUTPUT" style="text;html=1;strokeColor=none;fillColor=none;align=center;verticalAlign=middle;whiteSpace=wrap;rounded=0;fontSize=7;" parent="1" vertex="1">
          <mxGeometry x="804" y="360" width="60" height="20" as="geometry" />
        </mxCell>
        <mxCell id="MKDejTEfUFbS2tOspgIM-215" value="PWM" style="text;html=1;strokeColor=none;fillColor=none;align=center;verticalAlign=middle;whiteSpace=wrap;rounded=0;strokeWidth=1;fontSize=7;rotation=-90;" parent="1" vertex="1">
          <mxGeometry x="683" y="260" width="60" height="30" as="geometry" />
        </mxCell>
        <mxCell id="33VA1eLPJi6Qy8k9FSGy-48" value="GPIO INPUT" style="text;html=1;strokeColor=none;fillColor=none;align=center;verticalAlign=middle;whiteSpace=wrap;rounded=0;fontSize=7;" parent="1" vertex="1">
          <mxGeometry x="804" y="400" width="60" height="20" as="geometry" />
        </mxCell>
        <mxCell id="33VA1eLPJi6Qy8k9FSGy-51" value="GPIO&amp;nbsp; EXTI" style="text;html=1;strokeColor=none;fillColor=none;align=center;verticalAlign=middle;whiteSpace=wrap;rounded=0;fontSize=7;" parent="1" vertex="1">
          <mxGeometry x="804" y="340" width="60" height="20" as="geometry" />
        </mxCell>
      </root>
    </mxGraphModel>
  </diagram>
  <diagram id="LgT5LgbWfMtcP0gajrun" name="Alimentation">
    <mxGraphModel dx="2719" dy="1244" grid="1" gridSize="10" guides="1" tooltips="1" connect="1" arrows="1" fold="1" page="1" pageScale="1" pageWidth="827" pageHeight="1169" math="0" shadow="0">
      <root>
        <mxCell id="0" />
        <mxCell id="1" parent="0" />
        <mxCell id="vdmg18Wzf34p4jmL4wMt-1" value="" style="whiteSpace=wrap;html=1;aspect=fixed;strokeWidth=6;dashed=1;fillColor=none;strokeColor=#66B2FF;" parent="1" vertex="1">
          <mxGeometry x="460" y="50" width="1027" height="1027" as="geometry" />
        </mxCell>
        <mxCell id="YQu1KoEvz7qJgXC2Raz_-1" value="&lt;font style=&quot;font-size: 50px;&quot;&gt;Alimentation Bloc&lt;/font&gt;" style="text;html=1;strokeColor=none;fillColor=none;align=center;verticalAlign=middle;whiteSpace=wrap;rounded=0;dashed=1;strokeWidth=6;" parent="1" vertex="1">
          <mxGeometry x="160" y="100" width="60" height="30" as="geometry" />
        </mxCell>
        <mxCell id="-SeMZqbxLGw7f9UPlT7X-2" style="edgeStyle=orthogonalEdgeStyle;rounded=0;orthogonalLoop=1;jettySize=auto;html=1;exitX=0.855;exitY=0;exitDx=0;exitDy=4.35;exitPerimeter=0;entryX=0.25;entryY=1;entryDx=0;entryDy=0;fontSize=20;startArrow=none;startFill=0;endArrow=classic;endFill=1;strokeColor=#CC0000;strokeWidth=4;" parent="1" source="KbP3uyn52E35Sq37TRhF-1" target="-SeMZqbxLGw7f9UPlT7X-1" edge="1">
          <mxGeometry relative="1" as="geometry">
            <Array as="points">
              <mxPoint x="172" y="440" />
              <mxPoint x="340" y="440" />
              <mxPoint x="340" y="527" />
            </Array>
          </mxGeometry>
        </mxCell>
        <mxCell id="KbP3uyn52E35Sq37TRhF-1" value="&lt;b style=&quot;font-size: 20px;&quot;&gt;Batterie&lt;br&gt;&lt;/b&gt;7,2V&lt;br&gt;1.3Ah&lt;br&gt;1C max discharge Current" style="shape=cylinder3;whiteSpace=wrap;html=1;boundedLbl=1;backgroundOutline=1;size=15;fillColor=#b1ddf0;strokeColor=#10739e;" parent="1" vertex="1">
          <mxGeometry x="-110" y="500" width="330" height="188" as="geometry" />
        </mxCell>
        <mxCell id="-SeMZqbxLGw7f9UPlT7X-3" style="edgeStyle=orthogonalEdgeStyle;rounded=0;orthogonalLoop=1;jettySize=auto;html=1;exitX=0.75;exitY=1;exitDx=0;exitDy=0;entryX=0.855;entryY=1;entryDx=0;entryDy=-4.35;entryPerimeter=0;fontSize=20;startArrow=none;startFill=0;endArrow=classic;endFill=1;strokeWidth=3;" parent="1" source="-SeMZqbxLGw7f9UPlT7X-1" target="KbP3uyn52E35Sq37TRhF-1" edge="1">
          <mxGeometry relative="1" as="geometry">
            <Array as="points">
              <mxPoint x="340" y="642" />
              <mxPoint x="340" y="730" />
              <mxPoint x="172" y="730" />
            </Array>
          </mxGeometry>
        </mxCell>
        <mxCell id="qgHi4zzU6zpAK_9ZO8V_-6" style="edgeStyle=orthogonalEdgeStyle;rounded=0;orthogonalLoop=1;jettySize=auto;html=1;exitX=0.25;exitY=0;exitDx=0;exitDy=0;entryX=0;entryY=0.5;entryDx=0;entryDy=0;fontSize=15;startArrow=none;startFill=0;endArrow=classic;endFill=1;strokeWidth=3;strokeColor=#CC0000;" parent="1" source="-SeMZqbxLGw7f9UPlT7X-1" target="6V10eDQZ7dh4Fhuz7QEj-1" edge="1">
          <mxGeometry relative="1" as="geometry" />
        </mxCell>
        <mxCell id="wRnfZEi_rVS1ZJ6pjU_f-14" style="edgeStyle=orthogonalEdgeStyle;rounded=0;orthogonalLoop=1;jettySize=auto;html=1;exitX=0.25;exitY=0;exitDx=0;exitDy=0;entryX=1;entryY=0.09;entryDx=0;entryDy=0;entryPerimeter=0;fontSize=8;startArrow=none;startFill=0;endArrow=classic;endFill=1;strokeColor=#CC0000;strokeWidth=3;" parent="1" source="-SeMZqbxLGw7f9UPlT7X-1" target="vdmg18Wzf34p4jmL4wMt-1" edge="1">
          <mxGeometry relative="1" as="geometry">
            <Array as="points">
              <mxPoint x="595" y="527" />
              <mxPoint x="595" y="90" />
              <mxPoint x="1370" y="90" />
              <mxPoint x="1370" y="142" />
            </Array>
          </mxGeometry>
        </mxCell>
        <mxCell id="-SeMZqbxLGw7f9UPlT7X-1" value="&lt;font style=&quot;font-size: 20px;&quot;&gt;JST&lt;/font&gt;" style="rounded=0;whiteSpace=wrap;html=1;dashed=1;strokeColor=none;strokeWidth=6;fontSize=50;fillColor=#cce5ff;rotation=90;" parent="1" vertex="1">
          <mxGeometry x="402.5" y="527" width="230" height="115" as="geometry" />
        </mxCell>
        <mxCell id="qgHi4zzU6zpAK_9ZO8V_-3" style="edgeStyle=orthogonalEdgeStyle;rounded=0;orthogonalLoop=1;jettySize=auto;html=1;exitX=-0.007;exitY=0.135;exitDx=0;exitDy=0;entryX=0.5;entryY=1;entryDx=0;entryDy=0;fontSize=15;startArrow=classic;startFill=1;endArrow=none;endFill=0;exitPerimeter=0;" parent="1" source="6V10eDQZ7dh4Fhuz7QEj-1" target="qgHi4zzU6zpAK_9ZO8V_-2" edge="1">
          <mxGeometry relative="1" as="geometry">
            <Array as="points">
              <mxPoint x="760" y="250" />
            </Array>
          </mxGeometry>
        </mxCell>
        <mxCell id="yZ0bWerpVHvF2N3iKDFM-1" style="edgeStyle=orthogonalEdgeStyle;rounded=0;orthogonalLoop=1;jettySize=auto;html=1;exitX=1;exitY=0.5;exitDx=0;exitDy=0;fontSize=15;startArrow=none;startFill=0;endArrow=classic;endFill=1;entryX=1.004;entryY=0.3;entryDx=0;entryDy=0;entryPerimeter=0;strokeWidth=4;strokeColor=#00CC00;" parent="1" source="6V10eDQZ7dh4Fhuz7QEj-1" target="vdmg18Wzf34p4jmL4wMt-1" edge="1">
          <mxGeometry relative="1" as="geometry">
            <mxPoint x="1446" y="360" as="targetPoint" />
            <Array as="points">
              <mxPoint x="1155" y="358" />
            </Array>
          </mxGeometry>
        </mxCell>
        <mxCell id="6V10eDQZ7dh4Fhuz7QEj-1" value="&lt;font style=&quot;line-height: 0; font-size: 20px;&quot;&gt;&lt;i&gt;Regulateur 5V&lt;/i&gt;&lt;/font&gt;" style="whiteSpace=wrap;html=1;aspect=fixed;strokeWidth=1;fontSize=7;fillColor=#b1ddf0;strokeColor=#10739e;" parent="1" vertex="1">
          <mxGeometry x="855" y="210" width="300" height="300" as="geometry" />
        </mxCell>
        <mxCell id="qgHi4zzU6zpAK_9ZO8V_-12" style="edgeStyle=orthogonalEdgeStyle;rounded=0;orthogonalLoop=1;jettySize=auto;html=1;entryX=0.5;entryY=0;entryDx=0;entryDy=0;fontSize=15;startArrow=none;startFill=0;endArrow=classic;endFill=1;" parent="1" source="D3TFC2V3clASHKAV0zVa-1" target="qgHi4zzU6zpAK_9ZO8V_-10" edge="1">
          <mxGeometry relative="1" as="geometry">
            <Array as="points">
              <mxPoint x="760" y="930" />
            </Array>
          </mxGeometry>
        </mxCell>
        <mxCell id="yZ0bWerpVHvF2N3iKDFM-16" style="edgeStyle=orthogonalEdgeStyle;rounded=0;orthogonalLoop=1;jettySize=auto;html=1;exitX=0;exitY=0.25;exitDx=0;exitDy=0;entryX=1;entryY=0.5;entryDx=0;entryDy=0;fontSize=20;startArrow=classic;startFill=1;endArrow=none;endFill=0;strokeColor=#00CC00;strokeWidth=2;" parent="1" source="D3TFC2V3clASHKAV0zVa-1" target="yZ0bWerpVHvF2N3iKDFM-9" edge="1">
          <mxGeometry relative="1" as="geometry">
            <Array as="points">
              <mxPoint x="800" y="720" />
              <mxPoint x="800" y="580" />
              <mxPoint x="1290" y="580" />
              <mxPoint x="1290" y="360" />
            </Array>
          </mxGeometry>
        </mxCell>
        <mxCell id="wRnfZEi_rVS1ZJ6pjU_f-3" style="edgeStyle=orthogonalEdgeStyle;rounded=0;orthogonalLoop=1;jettySize=auto;html=1;exitX=0;exitY=0.5;exitDx=0;exitDy=0;entryX=1;entryY=0.5;entryDx=0;entryDy=0;fontSize=20;startArrow=none;startFill=1;endArrow=none;endFill=0;strokeColor=#00CC00;strokeWidth=2;" parent="1" source="wRnfZEi_rVS1ZJ6pjU_f-5" target="yZ0bWerpVHvF2N3iKDFM-9" edge="1">
          <mxGeometry relative="1" as="geometry">
            <Array as="points">
              <mxPoint x="740" y="645" />
              <mxPoint x="740" y="560" />
              <mxPoint x="1250" y="560" />
              <mxPoint x="1250" y="360" />
            </Array>
          </mxGeometry>
        </mxCell>
        <mxCell id="wRnfZEi_rVS1ZJ6pjU_f-20" style="edgeStyle=orthogonalEdgeStyle;rounded=0;orthogonalLoop=1;jettySize=auto;html=1;exitX=1;exitY=0.5;exitDx=0;exitDy=0;strokeColor=#007FFF;strokeWidth=3;fontSize=8;startArrow=none;startFill=0;endArrow=classic;endFill=1;" parent="1" source="D3TFC2V3clASHKAV0zVa-1" edge="1">
          <mxGeometry relative="1" as="geometry">
            <mxPoint x="1490" y="830" as="targetPoint" />
            <Array as="points">
              <mxPoint x="1230" y="797" />
              <mxPoint x="1230" y="830" />
              <mxPoint x="1487" y="830" />
            </Array>
          </mxGeometry>
        </mxCell>
        <mxCell id="D3TFC2V3clASHKAV0zVa-1" value="&lt;font size=&quot;1&quot;&gt;&lt;i style=&quot;font-size: 20px;&quot;&gt;Regulateur 3,3V&lt;/i&gt;&lt;/font&gt;" style="whiteSpace=wrap;html=1;aspect=fixed;strokeWidth=1;fontSize=7;fillColor=#b1ddf0;strokeColor=#10739e;" parent="1" vertex="1">
          <mxGeometry x="855" y="642" width="310" height="310" as="geometry" />
        </mxCell>
        <mxCell id="qgHi4zzU6zpAK_9ZO8V_-9" style="edgeStyle=orthogonalEdgeStyle;rounded=0;orthogonalLoop=1;jettySize=auto;html=1;exitX=0.75;exitY=0;exitDx=0;exitDy=0;entryX=0.75;entryY=0;entryDx=0;entryDy=0;fontSize=15;startArrow=none;startFill=0;endArrow=classic;endFill=1;" parent="1" source="qgHi4zzU6zpAK_9ZO8V_-1" target="-SeMZqbxLGw7f9UPlT7X-1" edge="1">
          <mxGeometry relative="1" as="geometry" />
        </mxCell>
        <mxCell id="qgHi4zzU6zpAK_9ZO8V_-1" value="&lt;font style=&quot;font-size: 15px;&quot;&gt;&lt;b&gt;GND&lt;/b&gt;&lt;/font&gt;" style="rounded=1;whiteSpace=wrap;html=1;strokeWidth=1;fontSize=7;fillColor=#b1ddf0;strokeColor=#10739e;" parent="1" vertex="1">
          <mxGeometry x="540" y="940" width="100" height="40" as="geometry" />
        </mxCell>
        <mxCell id="qgHi4zzU6zpAK_9ZO8V_-2" value="&lt;font style=&quot;font-size: 15px;&quot;&gt;&lt;b&gt;GND&lt;/b&gt;&lt;/font&gt;" style="rounded=1;whiteSpace=wrap;html=1;strokeWidth=1;fontSize=7;fillColor=#b1ddf0;strokeColor=#10739e;" parent="1" vertex="1">
          <mxGeometry x="710" y="130" width="100" height="30" as="geometry" />
        </mxCell>
        <mxCell id="qgHi4zzU6zpAK_9ZO8V_-4" value="Max Input Voltage = 18V" style="text;html=1;strokeColor=none;fillColor=none;align=center;verticalAlign=middle;whiteSpace=wrap;rounded=0;dashed=1;strokeWidth=6;fontSize=15;" parent="1" vertex="1">
          <mxGeometry x="925" y="390" width="170" height="30" as="geometry" />
        </mxCell>
        <mxCell id="qgHi4zzU6zpAK_9ZO8V_-5" value="Max Input Current = 1,35A" style="text;html=1;strokeColor=none;fillColor=none;align=center;verticalAlign=middle;whiteSpace=wrap;rounded=0;dashed=1;strokeWidth=6;fontSize=15;" parent="1" vertex="1">
          <mxGeometry x="917" y="420" width="185" height="30" as="geometry" />
        </mxCell>
        <mxCell id="qgHi4zzU6zpAK_9ZO8V_-10" value="&lt;font style=&quot;font-size: 15px;&quot;&gt;&lt;b&gt;GND&lt;/b&gt;&lt;/font&gt;" style="rounded=1;whiteSpace=wrap;html=1;strokeWidth=1;fontSize=7;fillColor=#b1ddf0;strokeColor=#10739e;" parent="1" vertex="1">
          <mxGeometry x="710" y="1010" width="100" height="40" as="geometry" />
        </mxCell>
        <mxCell id="yPT6dA80wT7QAGgcE4aa-2" style="edgeStyle=orthogonalEdgeStyle;rounded=0;orthogonalLoop=1;jettySize=auto;html=1;exitX=0.5;exitY=1;exitDx=0;exitDy=0;fontSize=15;startArrow=none;startFill=0;endArrow=none;endFill=0;" parent="1" source="yPT6dA80wT7QAGgcE4aa-1" edge="1">
          <mxGeometry relative="1" as="geometry">
            <mxPoint x="774.8604651162791" y="360" as="targetPoint" />
          </mxGeometry>
        </mxCell>
        <mxCell id="yPT6dA80wT7QAGgcE4aa-3" style="edgeStyle=orthogonalEdgeStyle;rounded=0;orthogonalLoop=1;jettySize=auto;html=1;exitX=0.5;exitY=0;exitDx=0;exitDy=0;fontSize=15;startArrow=none;startFill=0;endArrow=none;endFill=0;entryX=0.5;entryY=1;entryDx=0;entryDy=0;" parent="1" source="yPT6dA80wT7QAGgcE4aa-1" target="qgHi4zzU6zpAK_9ZO8V_-2" edge="1">
          <mxGeometry relative="1" as="geometry">
            <mxPoint x="760" y="280" as="targetPoint" />
          </mxGeometry>
        </mxCell>
        <mxCell id="yPT6dA80wT7QAGgcE4aa-1" value="C&lt;br&gt;10uF" style="whiteSpace=wrap;html=1;aspect=fixed;fillColor=#ffe6cc;strokeColor=#d79b00;" parent="1" vertex="1">
          <mxGeometry x="745" y="300" width="30" height="30" as="geometry" />
        </mxCell>
        <mxCell id="yZ0bWerpVHvF2N3iKDFM-2" value="V = 5,0V +- 1%&lt;br&gt;I = 700mA" style="text;html=1;strokeColor=none;fillColor=none;align=center;verticalAlign=middle;whiteSpace=wrap;rounded=0;dashed=1;strokeWidth=6;fontSize=15;" parent="1" vertex="1">
          <mxGeometry x="1340" y="315" width="136" height="30" as="geometry" />
        </mxCell>
        <mxCell id="yZ0bWerpVHvF2N3iKDFM-5" style="edgeStyle=orthogonalEdgeStyle;rounded=0;orthogonalLoop=1;jettySize=auto;html=1;exitX=0.5;exitY=1;exitDx=0;exitDy=0;fontSize=15;startArrow=none;startFill=0;endArrow=none;endFill=0;" parent="1" source="yZ0bWerpVHvF2N3iKDFM-3" edge="1">
          <mxGeometry relative="1" as="geometry">
            <mxPoint x="1214.904761904762" y="360" as="targetPoint" />
          </mxGeometry>
        </mxCell>
        <mxCell id="yZ0bWerpVHvF2N3iKDFM-6" style="edgeStyle=orthogonalEdgeStyle;rounded=0;orthogonalLoop=1;jettySize=auto;html=1;exitX=0.5;exitY=0;exitDx=0;exitDy=0;entryX=0.5;entryY=1;entryDx=0;entryDy=0;fontSize=15;startArrow=none;startFill=0;endArrow=none;endFill=0;" parent="1" source="yZ0bWerpVHvF2N3iKDFM-3" target="qgHi4zzU6zpAK_9ZO8V_-2" edge="1">
          <mxGeometry relative="1" as="geometry">
            <Array as="points">
              <mxPoint x="1215" y="180" />
              <mxPoint x="760" y="180" />
            </Array>
          </mxGeometry>
        </mxCell>
        <mxCell id="yZ0bWerpVHvF2N3iKDFM-3" value="C&lt;br&gt;22uF" style="whiteSpace=wrap;html=1;aspect=fixed;fillColor=#ffe6cc;strokeColor=#d79b00;" parent="1" vertex="1">
          <mxGeometry x="1200" y="270" width="30" height="30" as="geometry" />
        </mxCell>
        <mxCell id="yZ0bWerpVHvF2N3iKDFM-7" value="V=7,2V&lt;br&gt;Imax = &amp;nbsp;1,3A" style="text;html=1;strokeColor=none;fillColor=none;align=center;verticalAlign=middle;whiteSpace=wrap;rounded=0;dashed=1;strokeWidth=6;fontSize=15;" parent="1" vertex="1">
          <mxGeometry x="720" y="370" width="120" height="30" as="geometry" />
        </mxCell>
        <mxCell id="yZ0bWerpVHvF2N3iKDFM-8" value="&lt;b&gt;INPUT&lt;/b&gt;" style="text;html=1;strokeColor=none;fillColor=none;align=center;verticalAlign=middle;whiteSpace=wrap;rounded=0;dashed=1;strokeWidth=6;fontSize=15;" parent="1" vertex="1">
          <mxGeometry x="855" y="345" width="60" height="30" as="geometry" />
        </mxCell>
        <mxCell id="yZ0bWerpVHvF2N3iKDFM-9" value="&lt;b&gt;OUTPUT&lt;/b&gt;" style="text;html=1;strokeColor=none;fillColor=none;align=center;verticalAlign=middle;whiteSpace=wrap;rounded=0;dashed=1;strokeWidth=6;fontSize=15;" parent="1" vertex="1">
          <mxGeometry x="1090" y="345" width="60" height="30" as="geometry" />
        </mxCell>
        <mxCell id="yZ0bWerpVHvF2N3iKDFM-10" value="&lt;b&gt;ADJ/GND&lt;/b&gt;" style="text;html=1;strokeColor=none;fillColor=none;align=center;verticalAlign=middle;whiteSpace=wrap;rounded=0;dashed=1;strokeWidth=6;fontSize=15;" parent="1" vertex="1">
          <mxGeometry x="865" y="240" width="60" height="30" as="geometry" />
        </mxCell>
        <mxCell id="yZ0bWerpVHvF2N3iKDFM-14" value="V = 3,3V +- 3%&lt;br&gt;I = 150mA" style="text;html=1;strokeColor=none;fillColor=none;align=center;verticalAlign=middle;whiteSpace=wrap;rounded=0;dashed=1;strokeWidth=6;fontSize=15;" parent="1" vertex="1">
          <mxGeometry x="1340" y="850" width="136" height="30" as="geometry" />
        </mxCell>
        <mxCell id="yZ0bWerpVHvF2N3iKDFM-17" value="Max Input Voltage = 6V" style="text;html=1;strokeColor=none;fillColor=none;align=center;verticalAlign=middle;whiteSpace=wrap;rounded=0;dashed=1;strokeWidth=6;fontSize=15;" parent="1" vertex="1">
          <mxGeometry x="924.5" y="820" width="170" height="30" as="geometry" />
        </mxCell>
        <mxCell id="wRnfZEi_rVS1ZJ6pjU_f-1" value="&lt;b&gt;V_IN&lt;/b&gt;" style="text;html=1;strokeColor=none;fillColor=none;align=center;verticalAlign=middle;whiteSpace=wrap;rounded=0;dashed=1;strokeWidth=6;fontSize=15;" parent="1" vertex="1">
          <mxGeometry x="857.5" y="710" width="60" height="30" as="geometry" />
        </mxCell>
        <mxCell id="wRnfZEi_rVS1ZJ6pjU_f-2" value="&lt;b&gt;V_OUT&lt;/b&gt;" style="text;html=1;strokeColor=none;fillColor=none;align=center;verticalAlign=middle;whiteSpace=wrap;rounded=0;dashed=1;strokeWidth=6;fontSize=15;" parent="1" vertex="1">
          <mxGeometry x="1095" y="782" width="60" height="30" as="geometry" />
        </mxCell>
        <mxCell id="wRnfZEi_rVS1ZJ6pjU_f-4" value="&lt;b&gt;EN&lt;/b&gt;&lt;br&gt;&lt;font style=&quot;font-size: 8px;&quot;&gt;&lt;i&gt;Imax = 1uA&lt;br&gt;V &amp;gt; 1,2V&lt;br&gt;&lt;/i&gt;&lt;/font&gt;" style="text;html=1;strokeColor=none;fillColor=none;align=center;verticalAlign=middle;whiteSpace=wrap;rounded=0;dashed=1;strokeWidth=6;fontSize=15;" parent="1" vertex="1">
          <mxGeometry x="855" y="790" width="60" height="30" as="geometry" />
        </mxCell>
        <mxCell id="wRnfZEi_rVS1ZJ6pjU_f-5" value="R&lt;br&gt;&lt;font style=&quot;font-size: 6px;&quot;&gt;3MOhm&lt;/font&gt;" style="whiteSpace=wrap;html=1;aspect=fixed;fillColor=#ffe6cc;strokeColor=#d79b00;" parent="1" vertex="1">
          <mxGeometry x="730" y="630" width="31" height="31" as="geometry" />
        </mxCell>
        <mxCell id="wRnfZEi_rVS1ZJ6pjU_f-7" value="" style="edgeStyle=orthogonalEdgeStyle;rounded=0;orthogonalLoop=1;jettySize=auto;html=1;exitX=0;exitY=0.5;exitDx=0;exitDy=0;entryX=0.5;entryY=1;entryDx=0;entryDy=0;fontSize=20;startArrow=classic;startFill=1;endArrow=none;endFill=0;strokeColor=#FF9933;strokeWidth=2;" parent="1" source="D3TFC2V3clASHKAV0zVa-1" target="wRnfZEi_rVS1ZJ6pjU_f-5" edge="1">
          <mxGeometry relative="1" as="geometry">
            <mxPoint x="855" y="797" as="sourcePoint" />
            <mxPoint x="1150" y="360" as="targetPoint" />
            <Array as="points">
              <mxPoint x="750" y="797" />
              <mxPoint x="750" y="661" />
            </Array>
          </mxGeometry>
        </mxCell>
        <mxCell id="wRnfZEi_rVS1ZJ6pjU_f-9" style="edgeStyle=orthogonalEdgeStyle;rounded=0;orthogonalLoop=1;jettySize=auto;html=1;exitX=0.5;exitY=1;exitDx=0;exitDy=0;entryX=0.084;entryY=-0.011;entryDx=0;entryDy=0;entryPerimeter=0;fontSize=8;startArrow=none;startFill=0;endArrow=none;endFill=0;" parent="1" source="wRnfZEi_rVS1ZJ6pjU_f-8" target="qgHi4zzU6zpAK_9ZO8V_-10" edge="1">
          <mxGeometry relative="1" as="geometry" />
        </mxCell>
        <mxCell id="wRnfZEi_rVS1ZJ6pjU_f-10" style="edgeStyle=orthogonalEdgeStyle;rounded=0;orthogonalLoop=1;jettySize=auto;html=1;exitX=0.5;exitY=0;exitDx=0;exitDy=0;fontSize=8;startArrow=none;startFill=0;endArrow=none;endFill=0;strokeColor=#FF8000;strokeWidth=2;" parent="1" source="wRnfZEi_rVS1ZJ6pjU_f-8" edge="1">
          <mxGeometry relative="1" as="geometry">
            <mxPoint x="750" y="790" as="targetPoint" />
          </mxGeometry>
        </mxCell>
        <mxCell id="wRnfZEi_rVS1ZJ6pjU_f-8" value="R&lt;br&gt;&lt;font style=&quot;font-size: 5px;&quot;&gt;1,5MOhm&lt;/font&gt;" style="whiteSpace=wrap;html=1;aspect=fixed;fillColor=#ffe6cc;strokeColor=#d79b00;" parent="1" vertex="1">
          <mxGeometry x="699" y="850" width="31" height="31" as="geometry" />
        </mxCell>
        <mxCell id="wRnfZEi_rVS1ZJ6pjU_f-11" value="&lt;b&gt;GND&lt;/b&gt;" style="text;html=1;strokeColor=none;fillColor=none;align=center;verticalAlign=middle;whiteSpace=wrap;rounded=0;dashed=1;strokeWidth=6;fontSize=15;" parent="1" vertex="1">
          <mxGeometry x="857.5" y="915" width="60" height="30" as="geometry" />
        </mxCell>
        <mxCell id="wRnfZEi_rVS1ZJ6pjU_f-13" value="&lt;b&gt;NC&lt;/b&gt;" style="text;html=1;strokeColor=none;fillColor=none;align=center;verticalAlign=middle;whiteSpace=wrap;rounded=0;dashed=1;strokeWidth=6;fontSize=15;" parent="1" vertex="1">
          <mxGeometry x="857" y="860" width="60" height="30" as="geometry" />
        </mxCell>
        <mxCell id="wRnfZEi_rVS1ZJ6pjU_f-16" value="V=7,2V&lt;br&gt;Imax = &amp;nbsp;1,3A" style="text;html=1;strokeColor=none;fillColor=none;align=center;verticalAlign=middle;whiteSpace=wrap;rounded=0;dashed=1;strokeWidth=6;fontSize=15;" parent="1" vertex="1">
          <mxGeometry x="1367" y="100" width="120" height="30" as="geometry" />
        </mxCell>
        <mxCell id="wRnfZEi_rVS1ZJ6pjU_f-19" value="V = 1,5V&lt;br&gt;Imax = 1uA" style="text;html=1;strokeColor=none;fillColor=none;align=center;verticalAlign=middle;whiteSpace=wrap;rounded=0;dashed=1;strokeWidth=6;fontSize=15;" parent="1" vertex="1">
          <mxGeometry x="745" y="812" width="136" height="30" as="geometry" />
        </mxCell>
        <mxCell id="LKd5wUwPrefoSisjacPV-2" style="edgeStyle=orthogonalEdgeStyle;rounded=0;orthogonalLoop=1;jettySize=auto;html=1;exitX=0.5;exitY=0;exitDx=0;exitDy=0;entryX=1;entryY=0.5;entryDx=0;entryDy=0;strokeColor=#007FFF;strokeWidth=2;fontSize=5;startArrow=none;startFill=0;endArrow=none;endFill=0;" parent="1" source="LKd5wUwPrefoSisjacPV-1" target="D3TFC2V3clASHKAV0zVa-1" edge="1">
          <mxGeometry relative="1" as="geometry">
            <Array as="points">
              <mxPoint x="1295" y="830" />
              <mxPoint x="1230" y="830" />
              <mxPoint x="1230" y="797" />
            </Array>
          </mxGeometry>
        </mxCell>
        <mxCell id="LKd5wUwPrefoSisjacPV-3" style="edgeStyle=orthogonalEdgeStyle;rounded=0;orthogonalLoop=1;jettySize=auto;html=1;exitX=0.5;exitY=1;exitDx=0;exitDy=0;entryX=1;entryY=0.5;entryDx=0;entryDy=0;strokeColor=#000000;strokeWidth=1;fontSize=5;startArrow=none;startFill=0;endArrow=none;endFill=0;" parent="1" source="LKd5wUwPrefoSisjacPV-1" target="qgHi4zzU6zpAK_9ZO8V_-10" edge="1">
          <mxGeometry relative="1" as="geometry" />
        </mxCell>
        <mxCell id="LKd5wUwPrefoSisjacPV-1" value="C&lt;br&gt;10uF" style="whiteSpace=wrap;html=1;aspect=fixed;fillColor=#ffe6cc;strokeColor=#d79b00;" parent="1" vertex="1">
          <mxGeometry x="1280" y="885" width="30" height="30" as="geometry" />
        </mxCell>
        <mxCell id="Xa2b8Yv1AML4sSoSGgdY-2" style="edgeStyle=orthogonalEdgeStyle;rounded=0;orthogonalLoop=1;jettySize=auto;html=1;exitX=0.5;exitY=0;exitDx=0;exitDy=0;endArrow=none;endFill=0;strokeColor=#00CC00;" edge="1" parent="1" source="Xa2b8Yv1AML4sSoSGgdY-1">
          <mxGeometry relative="1" as="geometry">
            <mxPoint x="825" y="720" as="targetPoint" />
          </mxGeometry>
        </mxCell>
        <mxCell id="Xa2b8Yv1AML4sSoSGgdY-3" style="edgeStyle=orthogonalEdgeStyle;rounded=0;orthogonalLoop=1;jettySize=auto;html=1;exitX=0.5;exitY=1;exitDx=0;exitDy=0;entryX=0.75;entryY=0;entryDx=0;entryDy=0;strokeColor=#000000;endArrow=none;endFill=0;" edge="1" parent="1" source="Xa2b8Yv1AML4sSoSGgdY-1" target="qgHi4zzU6zpAK_9ZO8V_-10">
          <mxGeometry relative="1" as="geometry">
            <Array as="points">
              <mxPoint x="770" y="763" />
              <mxPoint x="770" y="940" />
              <mxPoint x="785" y="940" />
            </Array>
          </mxGeometry>
        </mxCell>
        <mxCell id="Xa2b8Yv1AML4sSoSGgdY-1" value="C&lt;br&gt;22uF" style="whiteSpace=wrap;html=1;aspect=fixed;fillColor=#ffe6cc;strokeColor=#d79b00;" vertex="1" parent="1">
          <mxGeometry x="810" y="733" width="30" height="30" as="geometry" />
        </mxCell>
      </root>
    </mxGraphModel>
  </diagram>
  <diagram id="I1oRLa1JB8xOTJrdsd35" name="Capteurs">
    <mxGraphModel dx="1113" dy="1901" grid="1" gridSize="10" guides="1" tooltips="1" connect="1" arrows="1" fold="1" page="1" pageScale="1" pageWidth="827" pageHeight="1169" math="0" shadow="0">
      <root>
        <mxCell id="0" />
        <mxCell id="1" parent="0" />
        <mxCell id="fsfn7Y6I-WVp7vmkKfZH-1" value="" style="whiteSpace=wrap;html=1;aspect=fixed;strokeWidth=6;dashed=1;fillColor=none;strokeColor=#66B2FF;" parent="1" vertex="1">
          <mxGeometry x="390" y="-20" width="960" height="960" as="geometry" />
        </mxCell>
        <mxCell id="QXFoJEq6BQLPhEi1J8Jf-4" value="OUT" style="edgeStyle=orthogonalEdgeStyle;rounded=0;orthogonalLoop=1;jettySize=auto;html=1;exitX=0.75;exitY=1;exitDx=0;exitDy=0;entryX=0.5;entryY=1;entryDx=0;entryDy=0;endArrow=none;endFill=0;" parent="1" source="fsfn7Y6I-WVp7vmkKfZH-1" target="19dVOWBT5KVekfGaguJR-9" edge="1">
          <mxGeometry relative="1" as="geometry" />
        </mxCell>
        <mxCell id="s6RGil1KS2IcCCHOgPJL-1" value="&lt;h1&gt;Bloc capteurs&lt;br&gt;&lt;/h1&gt;" style="text;html=1;strokeColor=none;fillColor=none;spacing=5;spacingTop=-20;whiteSpace=wrap;overflow=hidden;rounded=0;" parent="1" vertex="1">
          <mxGeometry x="40" y="51" width="190" height="40" as="geometry" />
        </mxCell>
        <UserObject label="Capteur bordure&lt;br&gt;&lt;br&gt;Voltage = 2.7V&lt;br&gt;Mean current = 5mA" treeRoot="1" id="19dVOWBT5KVekfGaguJR-1">
          <mxCell style="whiteSpace=wrap;html=1;align=center;treeFolding=1;treeMoving=1;newEdgeStyle={&quot;edgeStyle&quot;:&quot;elbowEdgeStyle&quot;,&quot;startArrow&quot;:&quot;none&quot;,&quot;endArrow&quot;:&quot;none&quot;};fillColor=#f5f5f5;fontColor=#333333;strokeColor=#666666;" parent="1" vertex="1">
            <mxGeometry x="530" y="400" width="200" height="200" as="geometry" />
          </mxCell>
        </UserObject>
        <UserObject label="Capteur TOF&lt;br&gt;&lt;br&gt;Voltage = 2.8V&lt;br&gt;Maximum input current = 6uA&amp;nbsp;" treeRoot="1" id="19dVOWBT5KVekfGaguJR-2">
          <mxCell style="whiteSpace=wrap;html=1;align=center;treeFolding=1;treeMoving=1;newEdgeStyle={&quot;edgeStyle&quot;:&quot;elbowEdgeStyle&quot;,&quot;startArrow&quot;:&quot;none&quot;,&quot;endArrow&quot;:&quot;none&quot;};fillColor=#f5f5f5;fontColor=#333333;strokeColor=#666666;" parent="1" vertex="1">
            <mxGeometry x="990" y="200" width="200" height="200" as="geometry" />
          </mxCell>
        </UserObject>
        <mxCell id="QXFoJEq6BQLPhEi1J8Jf-7" value="S1" style="edgeStyle=orthogonalEdgeStyle;rounded=0;orthogonalLoop=1;jettySize=auto;html=1;strokeColor=default;endArrow=none;endFill=0;" parent="1" source="19dVOWBT5KVekfGaguJR-9" edge="1">
          <mxGeometry relative="1" as="geometry">
            <mxPoint x="1330" y="769.9999999999998" as="targetPoint" />
          </mxGeometry>
        </mxCell>
        <mxCell id="QXFoJEq6BQLPhEi1J8Jf-8" value="S0" style="edgeStyle=orthogonalEdgeStyle;rounded=0;orthogonalLoop=1;jettySize=auto;html=1;exitX=1;exitY=0.25;exitDx=0;exitDy=0;strokeColor=default;endArrow=none;endFill=0;" parent="1" source="19dVOWBT5KVekfGaguJR-9" edge="1">
          <mxGeometry relative="1" as="geometry">
            <mxPoint x="1330" y="720" as="targetPoint" />
            <Array as="points">
              <mxPoint x="1330" y="720" />
            </Array>
          </mxGeometry>
        </mxCell>
        <mxCell id="QXFoJEq6BQLPhEi1J8Jf-11" value="S2" style="edgeStyle=orthogonalEdgeStyle;rounded=0;orthogonalLoop=1;jettySize=auto;html=1;exitX=1;exitY=0.75;exitDx=0;exitDy=0;strokeColor=default;endArrow=none;endFill=0;" parent="1" source="19dVOWBT5KVekfGaguJR-9" edge="1">
          <mxGeometry relative="1" as="geometry">
            <mxPoint x="1330" y="820" as="targetPoint" />
            <Array as="points">
              <mxPoint x="1330" y="820" />
            </Array>
          </mxGeometry>
        </mxCell>
        <mxCell id="QXFoJEq6BQLPhEi1J8Jf-14" value="VDD" style="edgeStyle=orthogonalEdgeStyle;rounded=0;orthogonalLoop=1;jettySize=auto;html=1;exitX=0.25;exitY=1;exitDx=0;exitDy=0;strokeColor=default;endArrow=none;endFill=0;" parent="1" source="19dVOWBT5KVekfGaguJR-9" target="fsfn7Y6I-WVp7vmkKfZH-1" edge="1">
          <mxGeometry relative="1" as="geometry">
            <Array as="points">
              <mxPoint x="1040" y="960" />
              <mxPoint x="1040" y="960" />
            </Array>
          </mxGeometry>
        </mxCell>
        <UserObject label="Capteur de couleur&lt;br&gt;&lt;br&gt;Maximum input voltage = 5.5V&lt;br&gt;Maximum input current = 5uA" treeRoot="1" id="19dVOWBT5KVekfGaguJR-9">
          <mxCell style="whiteSpace=wrap;html=1;align=center;treeFolding=1;treeMoving=1;newEdgeStyle={&quot;edgeStyle&quot;:&quot;elbowEdgeStyle&quot;,&quot;startArrow&quot;:&quot;none&quot;,&quot;endArrow&quot;:&quot;none&quot;};fillColor=#f5f5f5;fontColor=#333333;strokeColor=#666666;" parent="1" vertex="1">
            <mxGeometry x="990" y="670" width="200" height="200" as="geometry" />
          </mxCell>
        </UserObject>
        <mxCell id="qxdtjXKvPKWo3_YafCPN-1" value="&lt;font style=&quot;font-size: 10px;&quot;&gt;GPIO OUT&lt;/font&gt;" style="edgeLabel;html=1;align=center;verticalAlign=middle;resizable=0;points=[];rotation=0;" parent="1" connectable="0" vertex="1">
          <mxGeometry x="1360" y="720.000909090909" as="geometry">
            <mxPoint y="-1.9999999999999996" as="offset" />
          </mxGeometry>
        </mxCell>
        <mxCell id="qxdtjXKvPKWo3_YafCPN-2" value="&lt;font style=&quot;font-size: 10px;&quot;&gt;GPIO OUT&lt;/font&gt;" style="edgeLabel;html=1;align=center;verticalAlign=middle;resizable=0;points=[];rotation=0;" parent="1" connectable="0" vertex="1">
          <mxGeometry x="1360" y="820.000909090909" as="geometry">
            <mxPoint y="-1.9999999999999996" as="offset" />
          </mxGeometry>
        </mxCell>
        <mxCell id="qxdtjXKvPKWo3_YafCPN-3" value="&lt;font style=&quot;font-size: 10px;&quot;&gt;GPIO OUT&lt;/font&gt;" style="edgeLabel;html=1;align=center;verticalAlign=middle;resizable=0;points=[];rotation=0;" parent="1" connectable="0" vertex="1">
          <mxGeometry x="1360" y="770.000909090909" as="geometry">
            <mxPoint y="-1.9999999999999996" as="offset" />
          </mxGeometry>
        </mxCell>
        <mxCell id="qxdtjXKvPKWo3_YafCPN-6" value="&lt;font style=&quot;font-size: 10px;&quot;&gt;GPIO IN&lt;/font&gt;" style="edgeLabel;html=1;align=center;verticalAlign=middle;resizable=0;points=[];rotation=90;" parent="1" connectable="0" vertex="1">
          <mxGeometry x="1090" y="1050.0009090909089" as="geometry">
            <mxPoint x="11" y="3.0000000000000013" as="offset" />
          </mxGeometry>
        </mxCell>
        <mxCell id="qxdtjXKvPKWo3_YafCPN-8" value="S3" style="edgeStyle=orthogonalEdgeStyle;rounded=0;orthogonalLoop=1;jettySize=auto;html=1;exitX=1;exitY=0.25;exitDx=0;exitDy=0;strokeColor=default;endArrow=none;endFill=0;" parent="1" edge="1">
          <mxGeometry relative="1" as="geometry">
            <mxPoint x="1190" y="860.03" as="sourcePoint" />
            <mxPoint x="1330" y="860.03" as="targetPoint" />
            <Array as="points">
              <mxPoint x="1330" y="860.03" />
            </Array>
          </mxGeometry>
        </mxCell>
        <mxCell id="qxdtjXKvPKWo3_YafCPN-9" value="&lt;font style=&quot;font-size: 10px;&quot;&gt;GPIO OUT&lt;/font&gt;" style="edgeLabel;html=1;align=center;verticalAlign=middle;resizable=0;points=[];rotation=0;" parent="1" connectable="0" vertex="1">
          <mxGeometry x="1360" y="860.000909090909" as="geometry">
            <mxPoint y="-1.9999999999999996" as="offset" />
          </mxGeometry>
        </mxCell>
        <mxCell id="qxdtjXKvPKWo3_YafCPN-10" value="&lt;font style=&quot;font-size: 10px;&quot;&gt;Régulateur 3.3V&lt;/font&gt;" style="edgeLabel;html=1;align=center;verticalAlign=middle;resizable=0;points=[];rotation=90;" parent="1" connectable="0" vertex="1">
          <mxGeometry x="1040" y="1060.0009090909089" as="geometry">
            <mxPoint x="11" y="3.0000000000000013" as="offset" />
          </mxGeometry>
        </mxCell>
        <mxCell id="qxdtjXKvPKWo3_YafCPN-11" value="AVDD" style="edgeStyle=orthogonalEdgeStyle;rounded=0;orthogonalLoop=1;jettySize=auto;html=1;exitX=1;exitY=0.25;exitDx=0;exitDy=0;strokeColor=default;endArrow=none;endFill=0;" parent="1" edge="1">
          <mxGeometry relative="1" as="geometry">
            <mxPoint x="1190" y="349.9999999999998" as="sourcePoint" />
            <mxPoint x="1330" y="350.0000000000002" as="targetPoint" />
            <Array as="points">
              <mxPoint x="1330" y="350" />
            </Array>
          </mxGeometry>
        </mxCell>
        <mxCell id="qxdtjXKvPKWo3_YafCPN-12" value="SCL norme I²C" style="edgeStyle=orthogonalEdgeStyle;rounded=0;orthogonalLoop=1;jettySize=auto;html=1;exitX=1;exitY=0.25;exitDx=0;exitDy=0;strokeColor=default;endArrow=none;endFill=0;" parent="1" edge="1">
          <mxGeometry relative="1" as="geometry">
            <mxPoint x="1190" y="249.99999999999977" as="sourcePoint" />
            <mxPoint x="1330" y="250.00000000000023" as="targetPoint" />
            <Array as="points">
              <mxPoint x="1330" y="250" />
            </Array>
          </mxGeometry>
        </mxCell>
        <mxCell id="qxdtjXKvPKWo3_YafCPN-13" value="SDA norme I²C" style="edgeStyle=orthogonalEdgeStyle;rounded=0;orthogonalLoop=1;jettySize=auto;html=1;exitX=1;exitY=0.25;exitDx=0;exitDy=0;strokeColor=default;endArrow=none;endFill=0;" parent="1" edge="1">
          <mxGeometry relative="1" as="geometry">
            <mxPoint x="1190" y="299.40999999999974" as="sourcePoint" />
            <mxPoint x="1330" y="299.4100000000002" as="targetPoint" />
            <Array as="points">
              <mxPoint x="1330" y="299.40999999999997" />
            </Array>
          </mxGeometry>
        </mxCell>
        <mxCell id="4CU2lbgGFDIUytyndtSq-2" value="&lt;font style=&quot;font-size: 10px;&quot;&gt;GPIO OUT&lt;/font&gt;" style="edgeLabel;html=1;align=center;verticalAlign=middle;resizable=0;points=[];rotation=0;" parent="1" connectable="0" vertex="1">
          <mxGeometry x="1360" y="250.00090909090898" as="geometry">
            <mxPoint y="-1.9999999999999996" as="offset" />
          </mxGeometry>
        </mxCell>
        <mxCell id="4CU2lbgGFDIUytyndtSq-3" value="&lt;font style=&quot;font-size: 10px;&quot;&gt;GPIO OUT&lt;/font&gt;" style="edgeLabel;html=1;align=center;verticalAlign=middle;resizable=0;points=[];rotation=0;" parent="1" connectable="0" vertex="1">
          <mxGeometry x="1360" y="300.000909090909" as="geometry">
            <mxPoint y="-1.9999999999999996" as="offset" />
          </mxGeometry>
        </mxCell>
        <mxCell id="zl4UcV6McLyLE8RKUQUC-1" value="&lt;font style=&quot;font-size: 10px;&quot;&gt;Régulateur 3.3V&lt;/font&gt;" style="edgeLabel;html=1;align=center;verticalAlign=middle;resizable=0;points=[];rotation=0;" parent="1" connectable="0" vertex="1">
          <mxGeometry x="1370" y="360.00090909090886" as="geometry">
            <mxPoint y="-10.999999999999998" as="offset" />
          </mxGeometry>
        </mxCell>
        <mxCell id="T51rwtkfuCwhTmQn15lh-2" value="AVDD" style="edgeStyle=orthogonalEdgeStyle;rounded=0;orthogonalLoop=1;jettySize=auto;html=1;exitX=1;exitY=0.25;exitDx=0;exitDy=0;strokeColor=default;endArrow=none;endFill=0;" parent="1" edge="1">
          <mxGeometry relative="1" as="geometry">
            <mxPoint x="390" y="440" as="sourcePoint" />
            <mxPoint x="530" y="440" as="targetPoint" />
            <Array as="points">
              <mxPoint x="530" y="440" />
            </Array>
          </mxGeometry>
        </mxCell>
        <mxCell id="T51rwtkfuCwhTmQn15lh-3" value="AVDD" style="edgeStyle=orthogonalEdgeStyle;rounded=0;orthogonalLoop=1;jettySize=auto;html=1;exitX=1;exitY=0.25;exitDx=0;exitDy=0;strokeColor=default;endArrow=none;endFill=0;" parent="1" edge="1">
          <mxGeometry relative="1" as="geometry">
            <mxPoint x="389.94" y="520" as="sourcePoint" />
            <mxPoint x="529.94" y="520" as="targetPoint" />
            <Array as="points">
              <mxPoint x="529.94" y="520" />
            </Array>
          </mxGeometry>
        </mxCell>
        <mxCell id="T51rwtkfuCwhTmQn15lh-4" value="AVDD" style="edgeStyle=orthogonalEdgeStyle;rounded=0;orthogonalLoop=1;jettySize=auto;html=1;exitX=1;exitY=0.25;exitDx=0;exitDy=0;strokeColor=default;endArrow=none;endFill=0;" parent="1" edge="1">
          <mxGeometry relative="1" as="geometry">
            <mxPoint x="390" y="480" as="sourcePoint" />
            <mxPoint x="530" y="480" as="targetPoint" />
            <Array as="points">
              <mxPoint x="530" y="480" />
            </Array>
          </mxGeometry>
        </mxCell>
      </root>
    </mxGraphModel>
  </diagram>
  <diagram id="0JfAx__jh9DHLGMrukv-" name="Actuators">
    <mxGraphModel dx="946" dy="622" grid="1" gridSize="10" guides="1" tooltips="1" connect="1" arrows="1" fold="1" page="1" pageScale="1" pageWidth="827" pageHeight="1169" math="0" shadow="0">
      <root>
        <mxCell id="0" />
        <mxCell id="1" parent="0" />
        <mxCell id="1t1aL1XUzrUJPp9ihFa1-1" value="Driver" style="whiteSpace=wrap;html=1;aspect=fixed;" parent="1" vertex="1">
          <mxGeometry x="190" y="120" width="90" height="90" as="geometry" />
        </mxCell>
        <mxCell id="1t1aL1XUzrUJPp9ihFa1-2" value="Motor" style="whiteSpace=wrap;html=1;aspect=fixed;" parent="1" vertex="1">
          <mxGeometry x="490" y="120" width="90" height="90" as="geometry" />
        </mxCell>
        <mxCell id="1t1aL1XUzrUJPp9ihFa1-3" value="" style="rounded=0;whiteSpace=wrap;html=1;" parent="1" vertex="1">
          <mxGeometry x="400" y="120" width="10" height="90" as="geometry" />
        </mxCell>
        <mxCell id="1t1aL1XUzrUJPp9ihFa1-4" value="" style="endArrow=none;html=1;rounded=0;" parent="1" edge="1">
          <mxGeometry width="50" height="50" relative="1" as="geometry">
            <mxPoint x="410" y="200" as="sourcePoint" />
            <mxPoint x="490" y="200" as="targetPoint" />
          </mxGeometry>
        </mxCell>
        <mxCell id="1t1aL1XUzrUJPp9ihFa1-5" value="" style="endArrow=none;html=1;rounded=0;entryX=-0.005;entryY=0.776;entryDx=0;entryDy=0;exitX=1.057;exitY=0.776;exitDx=0;exitDy=0;entryPerimeter=0;exitPerimeter=0;" parent="1" source="1t1aL1XUzrUJPp9ihFa1-3" target="1t1aL1XUzrUJPp9ihFa1-2" edge="1">
          <mxGeometry width="50" height="50" relative="1" as="geometry">
            <mxPoint x="409.9999999999999" y="180" as="sourcePoint" />
            <mxPoint x="485.19999999999993" y="180" as="targetPoint" />
          </mxGeometry>
        </mxCell>
        <mxCell id="1t1aL1XUzrUJPp9ihFa1-6" value="" style="endArrow=none;html=1;rounded=0;entryX=0;entryY=0.75;entryDx=0;entryDy=0;exitX=1.16;exitY=0.875;exitDx=0;exitDy=0;exitPerimeter=0;fillColor=#dae8fc;strokeColor=#6c8ebf;" parent="1" edge="1">
          <mxGeometry width="50" height="50" relative="1" as="geometry">
            <mxPoint x="409.9999999999999" y="170" as="sourcePoint" />
            <mxPoint x="490" y="170" as="targetPoint" />
          </mxGeometry>
        </mxCell>
        <mxCell id="1t1aL1XUzrUJPp9ihFa1-7" value="" style="endArrow=none;html=1;rounded=0;entryX=0;entryY=0.75;entryDx=0;entryDy=0;exitX=1.16;exitY=0.875;exitDx=0;exitDy=0;exitPerimeter=0;fillColor=#ffe6cc;strokeColor=#d79b00;" parent="1" edge="1">
          <mxGeometry width="50" height="50" relative="1" as="geometry">
            <mxPoint x="409.9999999999999" y="130" as="sourcePoint" />
            <mxPoint x="490" y="130" as="targetPoint" />
          </mxGeometry>
        </mxCell>
        <mxCell id="1t1aL1XUzrUJPp9ihFa1-8" value="" style="endArrow=none;html=1;rounded=0;entryX=0;entryY=0.75;entryDx=0;entryDy=0;exitX=1.16;exitY=0.875;exitDx=0;exitDy=0;exitPerimeter=0;fillColor=#ffe6cc;strokeColor=#d79b00;" parent="1" edge="1">
          <mxGeometry width="50" height="50" relative="1" as="geometry">
            <mxPoint x="409.9999999999999" y="140" as="sourcePoint" />
            <mxPoint x="490" y="140" as="targetPoint" />
          </mxGeometry>
        </mxCell>
        <mxCell id="1t1aL1XUzrUJPp9ihFa1-9" value="" style="endArrow=none;html=1;rounded=0;entryX=0;entryY=0.75;entryDx=0;entryDy=0;exitX=1.16;exitY=0.875;exitDx=0;exitDy=0;exitPerimeter=0;fillColor=#d5e8d4;strokeColor=#82b366;" parent="1" edge="1">
          <mxGeometry width="50" height="50" relative="1" as="geometry">
            <mxPoint x="409.9999999999999" y="160" as="sourcePoint" />
            <mxPoint x="490" y="160" as="targetPoint" />
          </mxGeometry>
        </mxCell>
        <mxCell id="1t1aL1XUzrUJPp9ihFa1-10" value="" style="endArrow=none;html=1;rounded=0;entryX=0.015;entryY=0.107;entryDx=0;entryDy=0;exitX=1.16;exitY=0.875;exitDx=0;exitDy=0;exitPerimeter=0;entryPerimeter=0;fillColor=#ffe6cc;strokeColor=#d79b00;" parent="1" target="1t1aL1XUzrUJPp9ihFa1-3" edge="1">
          <mxGeometry width="50" height="50" relative="1" as="geometry">
            <mxPoint x="279.9999999999999" y="130" as="sourcePoint" />
            <mxPoint x="360" y="130" as="targetPoint" />
          </mxGeometry>
        </mxCell>
        <mxCell id="1t1aL1XUzrUJPp9ihFa1-11" value="" style="endArrow=none;html=1;rounded=0;entryX=0.015;entryY=0.107;entryDx=0;entryDy=0;exitX=1.16;exitY=0.875;exitDx=0;exitDy=0;exitPerimeter=0;entryPerimeter=0;fillColor=#ffe6cc;strokeColor=#d79b00;" parent="1" edge="1">
          <mxGeometry width="50" height="50" relative="1" as="geometry">
            <mxPoint x="279.9999999999999" y="140" as="sourcePoint" />
            <mxPoint x="400.15" y="139.63" as="targetPoint" />
          </mxGeometry>
        </mxCell>
        <mxCell id="1t1aL1XUzrUJPp9ihFa1-12" value="" style="endArrow=none;html=1;rounded=0;entryX=0.015;entryY=0.107;entryDx=0;entryDy=0;entryPerimeter=0;" parent="1" edge="1">
          <mxGeometry width="50" height="50" relative="1" as="geometry">
            <mxPoint x="340" y="270" as="sourcePoint" />
            <mxPoint x="400.15" y="190" as="targetPoint" />
            <Array as="points">
              <mxPoint x="340" y="190" />
            </Array>
          </mxGeometry>
        </mxCell>
        <mxCell id="1t1aL1XUzrUJPp9ihFa1-13" value="" style="endArrow=none;html=1;rounded=0;entryX=-0.027;entryY=0.439;entryDx=0;entryDy=0;entryPerimeter=0;fillColor=#d5e8d4;strokeColor=#82b366;" parent="1" target="1t1aL1XUzrUJPp9ihFa1-3" edge="1">
          <mxGeometry width="50" height="50" relative="1" as="geometry">
            <mxPoint x="310" y="270" as="sourcePoint" />
            <mxPoint x="390.15" y="159.63" as="targetPoint" />
            <Array as="points">
              <mxPoint x="310" y="160" />
            </Array>
          </mxGeometry>
        </mxCell>
        <mxCell id="1t1aL1XUzrUJPp9ihFa1-14" value="" style="endArrow=none;html=1;rounded=0;entryX=0.015;entryY=0.107;entryDx=0;entryDy=0;entryPerimeter=0;" parent="1" edge="1">
          <mxGeometry width="50" height="50" relative="1" as="geometry">
            <mxPoint x="350" y="270" as="sourcePoint" />
            <mxPoint x="400.15" y="200" as="targetPoint" />
            <Array as="points">
              <mxPoint x="350" y="200" />
            </Array>
          </mxGeometry>
        </mxCell>
        <mxCell id="1t1aL1XUzrUJPp9ihFa1-15" value="" style="endArrow=none;html=1;rounded=0;fillColor=#dae8fc;strokeColor=#6c8ebf;" parent="1" edge="1">
          <mxGeometry width="50" height="50" relative="1" as="geometry">
            <mxPoint x="300" y="250" as="sourcePoint" />
            <mxPoint x="400" y="170" as="targetPoint" />
            <Array as="points">
              <mxPoint x="300" y="170" />
            </Array>
          </mxGeometry>
        </mxCell>
        <mxCell id="1t1aL1XUzrUJPp9ihFa1-16" value="" style="endArrow=none;html=1;rounded=0;fillColor=#dae8fc;strokeColor=#6c8ebf;" parent="1" edge="1">
          <mxGeometry width="50" height="50" relative="1" as="geometry">
            <mxPoint x="280" y="170" as="sourcePoint" />
            <mxPoint x="310" y="170" as="targetPoint" />
          </mxGeometry>
        </mxCell>
        <mxCell id="1t1aL1XUzrUJPp9ihFa1-19" value="" style="endArrow=none;html=1;rounded=0;" parent="1" edge="1">
          <mxGeometry width="50" height="50" relative="1" as="geometry">
            <mxPoint x="330.63" y="270" as="sourcePoint" />
            <mxPoint x="250.63" y="210" as="targetPoint" />
            <Array as="points">
              <mxPoint x="330.63" y="220" />
              <mxPoint x="250.63" y="220" />
            </Array>
          </mxGeometry>
        </mxCell>
        <mxCell id="1t1aL1XUzrUJPp9ihFa1-20" value="" style="endArrow=none;html=1;rounded=0;" parent="1" edge="1">
          <mxGeometry width="50" height="50" relative="1" as="geometry">
            <mxPoint x="320" y="270" as="sourcePoint" />
            <mxPoint x="240" y="210" as="targetPoint" />
            <Array as="points">
              <mxPoint x="320" y="230" />
              <mxPoint x="240" y="230" />
            </Array>
          </mxGeometry>
        </mxCell>
        <mxCell id="1t1aL1XUzrUJPp9ihFa1-23" value="" style="endArrow=none;html=1;rounded=0;entryX=0.225;entryY=0.001;entryDx=0;entryDy=0;entryPerimeter=0;fillColor=#f8cecc;strokeColor=#b85450;" parent="1" target="1t1aL1XUzrUJPp9ihFa1-1" edge="1">
          <mxGeometry width="50" height="50" relative="1" as="geometry">
            <mxPoint x="200" y="100" as="sourcePoint" />
            <mxPoint x="180" y="130" as="targetPoint" />
            <Array as="points">
              <mxPoint x="210" y="100" />
            </Array>
          </mxGeometry>
        </mxCell>
        <mxCell id="1t1aL1XUzrUJPp9ihFa1-24" value="" style="endArrow=none;html=1;rounded=0;entryX=0.225;entryY=0.001;entryDx=0;entryDy=0;entryPerimeter=0;fillColor=#f8cecc;strokeColor=#b85450;" parent="1" edge="1">
          <mxGeometry width="50" height="50" relative="1" as="geometry">
            <mxPoint x="200" y="79.91" as="sourcePoint" />
            <mxPoint x="200.25" y="120" as="targetPoint" />
            <Array as="points" />
          </mxGeometry>
        </mxCell>
        <mxCell id="1t1aL1XUzrUJPp9ihFa1-25" value="" style="endArrow=none;html=1;rounded=0;fillColor=#f8cecc;strokeColor=#b85450;" parent="1" edge="1">
          <mxGeometry width="50" height="50" relative="1" as="geometry">
            <mxPoint x="230" y="100" as="sourcePoint" />
            <mxPoint x="210" y="100" as="targetPoint" />
          </mxGeometry>
        </mxCell>
        <mxCell id="1t1aL1XUzrUJPp9ihFa1-27" value="" style="endArrow=none;html=1;rounded=0;" parent="1" edge="1">
          <mxGeometry width="50" height="50" relative="1" as="geometry">
            <mxPoint x="240" y="110" as="sourcePoint" />
            <mxPoint x="240" y="90" as="targetPoint" />
            <Array as="points">
              <mxPoint x="240" y="100" />
            </Array>
          </mxGeometry>
        </mxCell>
        <mxCell id="1t1aL1XUzrUJPp9ihFa1-32" value="" style="endArrow=none;html=1;rounded=0;" parent="1" edge="1">
          <mxGeometry width="50" height="50" relative="1" as="geometry">
            <mxPoint x="230" y="110" as="sourcePoint" />
            <mxPoint x="230" y="90" as="targetPoint" />
          </mxGeometry>
        </mxCell>
        <mxCell id="1t1aL1XUzrUJPp9ihFa1-34" value="" style="endArrow=none;html=1;rounded=0;fillColor=#dae8fc;strokeColor=#6c8ebf;" parent="1" edge="1">
          <mxGeometry width="50" height="50" relative="1" as="geometry">
            <mxPoint x="240" y="100" as="sourcePoint" />
            <mxPoint x="300" y="170" as="targetPoint" />
            <Array as="points">
              <mxPoint x="300" y="100" />
            </Array>
          </mxGeometry>
        </mxCell>
        <mxCell id="1t1aL1XUzrUJPp9ihFa1-35" value="" style="endArrow=none;html=1;rounded=0;fillColor=#f8cecc;strokeColor=#b85450;" parent="1" edge="1">
          <mxGeometry width="50" height="50" relative="1" as="geometry">
            <mxPoint x="160" y="130" as="sourcePoint" />
            <mxPoint x="200" y="100" as="targetPoint" />
            <Array as="points">
              <mxPoint x="160" y="100" />
            </Array>
          </mxGeometry>
        </mxCell>
        <mxCell id="1t1aL1XUzrUJPp9ihFa1-36" value="" style="rounded=0;whiteSpace=wrap;html=1;" parent="1" vertex="1">
          <mxGeometry x="150" y="130" width="20" height="40" as="geometry" />
        </mxCell>
        <mxCell id="1t1aL1XUzrUJPp9ihFa1-37" value="" style="rounded=0;whiteSpace=wrap;html=1;" parent="1" vertex="1">
          <mxGeometry x="150" y="190" width="20" height="40" as="geometry" />
        </mxCell>
        <mxCell id="1t1aL1XUzrUJPp9ihFa1-38" value="" style="endArrow=none;html=1;rounded=0;exitX=0.5;exitY=0;exitDx=0;exitDy=0;" parent="1" source="1t1aL1XUzrUJPp9ihFa1-37" edge="1">
          <mxGeometry width="50" height="50" relative="1" as="geometry">
            <mxPoint x="110" y="220" as="sourcePoint" />
            <mxPoint x="160" y="170" as="targetPoint" />
          </mxGeometry>
        </mxCell>
        <mxCell id="1t1aL1XUzrUJPp9ihFa1-39" value="" style="endArrow=none;html=1;rounded=0;exitX=0.002;exitY=0.668;exitDx=0;exitDy=0;exitPerimeter=0;" parent="1" source="1t1aL1XUzrUJPp9ihFa1-1" edge="1">
          <mxGeometry width="50" height="50" relative="1" as="geometry">
            <mxPoint x="110" y="230" as="sourcePoint" />
            <mxPoint x="160" y="180" as="targetPoint" />
          </mxGeometry>
        </mxCell>
        <mxCell id="1t1aL1XUzrUJPp9ihFa1-40" value="" style="endArrow=none;html=1;rounded=0;fillColor=#dae8fc;strokeColor=#6c8ebf;" parent="1" edge="1">
          <mxGeometry width="50" height="50" relative="1" as="geometry">
            <mxPoint x="300" y="250" as="sourcePoint" />
            <mxPoint x="160" y="230" as="targetPoint" />
            <Array as="points">
              <mxPoint x="160" y="250" />
            </Array>
          </mxGeometry>
        </mxCell>
        <mxCell id="1t1aL1XUzrUJPp9ihFa1-41" value="" style="endArrow=none;html=1;rounded=0;fillColor=#dae8fc;strokeColor=#6c8ebf;" parent="1" edge="1">
          <mxGeometry width="50" height="50" relative="1" as="geometry">
            <mxPoint x="300" y="270" as="sourcePoint" />
            <mxPoint x="300" y="250" as="targetPoint" />
          </mxGeometry>
        </mxCell>
        <mxCell id="1t1aL1XUzrUJPp9ihFa1-42" value="" style="endArrow=none;html=1;rounded=0;fillColor=#f8cecc;strokeColor=#b85450;" parent="1" edge="1">
          <mxGeometry width="50" height="50" relative="1" as="geometry">
            <mxPoint x="140" y="80" as="sourcePoint" />
            <mxPoint x="200" y="80" as="targetPoint" />
          </mxGeometry>
        </mxCell>
        <mxCell id="1t1aL1XUzrUJPp9ihFa1-43" value="" style="endArrow=none;html=1;rounded=0;fillColor=#f8cecc;strokeColor=#b85450;" parent="1" edge="1">
          <mxGeometry width="50" height="50" relative="1" as="geometry">
            <mxPoint x="140" y="260" as="sourcePoint" />
            <mxPoint x="140" y="80" as="targetPoint" />
          </mxGeometry>
        </mxCell>
        <mxCell id="1t1aL1XUzrUJPp9ihFa1-44" value="" style="endArrow=none;html=1;rounded=0;fillColor=#f8cecc;strokeColor=#b85450;" parent="1" edge="1">
          <mxGeometry width="50" height="50" relative="1" as="geometry">
            <mxPoint x="290" y="260" as="sourcePoint" />
            <mxPoint x="140" y="260" as="targetPoint" />
          </mxGeometry>
        </mxCell>
        <mxCell id="1t1aL1XUzrUJPp9ihFa1-45" value="" style="endArrow=none;html=1;rounded=0;fillColor=#f8cecc;strokeColor=#b85450;" parent="1" edge="1">
          <mxGeometry width="50" height="50" relative="1" as="geometry">
            <mxPoint x="290" y="270" as="sourcePoint" />
            <mxPoint x="290" y="260" as="targetPoint" />
          </mxGeometry>
        </mxCell>
        <mxCell id="1t1aL1XUzrUJPp9ihFa1-47" value="&lt;font style=&quot;font-size: 4px;&quot;&gt;VDD&lt;/font&gt;" style="text;html=1;strokeColor=none;fillColor=none;align=center;verticalAlign=middle;whiteSpace=wrap;rounded=0;rotation=-90;" parent="1" vertex="1">
          <mxGeometry x="190" y="130" width="11.25" height="0.63" as="geometry" />
        </mxCell>
        <mxCell id="1t1aL1XUzrUJPp9ihFa1-48" value="&lt;font style=&quot;font-size: 4px;&quot;&gt;Vm&lt;/font&gt;" style="text;html=1;strokeColor=none;fillColor=none;align=center;verticalAlign=middle;whiteSpace=wrap;rounded=0;rotation=-90;" parent="1" vertex="1">
          <mxGeometry x="201.25" y="129.37" width="11.25" height="0.63" as="geometry" />
        </mxCell>
        <mxCell id="1t1aL1XUzrUJPp9ihFa1-49" value="&lt;font style=&quot;font-size: 4px;&quot;&gt;Vref&lt;/font&gt;" style="text;html=1;strokeColor=none;fillColor=none;align=center;verticalAlign=middle;whiteSpace=wrap;rounded=0;rotation=0;" parent="1" vertex="1">
          <mxGeometry x="190" y="180" width="11.25" height="0.63" as="geometry" />
        </mxCell>
        <mxCell id="1t1aL1XUzrUJPp9ihFa1-50" value="&lt;span style=&quot;font-size: 4px;&quot;&gt;FWD&lt;/span&gt;" style="text;html=1;strokeColor=none;fillColor=none;align=center;verticalAlign=middle;whiteSpace=wrap;rounded=0;rotation=0;" parent="1" vertex="1">
          <mxGeometry x="229.38" y="195" width="11.25" height="10.63" as="geometry" />
        </mxCell>
        <mxCell id="1t1aL1XUzrUJPp9ihFa1-51" value="&lt;span style=&quot;font-size: 4px;&quot;&gt;REV&lt;/span&gt;" style="text;html=1;strokeColor=none;fillColor=none;align=center;verticalAlign=middle;whiteSpace=wrap;rounded=0;rotation=0;" parent="1" vertex="1">
          <mxGeometry x="250" y="195" width="11.25" height="10.63" as="geometry" />
        </mxCell>
        <mxCell id="1t1aL1XUzrUJPp9ihFa1-52" value="&lt;span style=&quot;font-size: 4px;&quot;&gt;O1&lt;br&gt;O2&lt;br&gt;&lt;/span&gt;" style="text;html=1;strokeColor=none;fillColor=none;align=center;verticalAlign=middle;whiteSpace=wrap;rounded=0;rotation=0;" parent="1" vertex="1">
          <mxGeometry x="268.75" y="128.74" width="11.25" height="0.63" as="geometry" />
        </mxCell>
      </root>
    </mxGraphModel>
  </diagram>
</mxfile>
